<svg width="288" height="246" viewBox="0 0 288 246" fill="none" xmlns="http://www.w3.org/2000/svg">
<g clip-path="url(#clip0_698_18596)">
<path opacity="0.921" fill-rule="evenodd" clip-rule="evenodd" d="M39.8546 33.7467C40.3593 33.5112 40.8015 33.6052 41.1813 34.0287C43.8522 39.2946 44.692 44.8524 43.7009 50.7022C43.0839 51.3014 42.6113 51.221 42.2831 50.4608C40.9645 46.8161 39.9241 43.0944 39.1622 39.2961C38.7407 37.3288 38.9716 35.4789 39.8546 33.7467Z" fill="#B6A7B5"/>
<path opacity="0.923" fill-rule="evenodd" clip-rule="evenodd" d="M29.2516 41.312C30.4949 40.8171 31.6798 40.944 32.8061 41.6928C36.452 44.0722 39.1386 47.2418 40.8663 51.2016C40.3806 51.5153 39.871 51.5968 39.3377 51.4463C36.438 49.7569 33.601 47.9645 30.8264 46.0692C29.5773 45.0561 28.8907 43.7609 28.7666 42.1834C28.9389 41.8837 29.1007 41.5932 29.2516 41.312Z" fill="#B6A7B5"/>
<path opacity="0.888" fill-rule="evenodd" clip-rule="evenodd" d="M12.1304 69.034C11.7515 68.1838 11.3725 67.3339 10.9936 66.4837C11.0843 63.8126 11.689 61.2502 12.8075 58.7966C15.9739 55.6288 18.165 56.217 19.3808 60.5611C20.0479 64.4409 20.6192 68.3351 21.0949 72.2438C21.5441 75.9121 22.7629 79.2994 24.7514 82.4055C25.1995 83.0334 25.7431 83.1913 26.3821 82.8796C27.1875 80.8313 27.3404 78.7251 26.8408 76.5609C25.2307 73.9171 24.2117 71.0597 23.7835 67.9882C23.9544 67.3717 24.359 66.973 24.9972 66.792C25.4079 66.6231 25.8296 66.5079 26.2625 66.4463C26.5398 66.9051 26.817 67.3637 27.0943 67.8225C27.8948 70.1216 28.7007 72.4192 29.5118 74.7151C30.3633 76.6663 31.6948 78.1837 33.5063 79.267C34.0597 79.3968 34.4847 79.2073 34.7814 78.6986C35.9078 76.4965 36.3541 74.1503 36.1202 71.66C35.3522 65.0822 32.7807 59.3137 28.4056 54.3543C26.4826 52.4851 24.2034 51.5359 21.5679 51.5067C21.4596 51.2638 21.3513 51.0209 21.243 50.778C21.5992 50.5838 21.977 50.4518 22.3766 50.3818C25.6219 50.6428 28.2528 52.0541 30.269 54.6155C33.5933 59.1705 35.84 64.2102 37.0091 69.7352C37.6665 72.7034 37.464 75.5962 36.4012 78.4132C34.9293 80.5547 32.9826 81.1679 30.5609 80.2525C29.6786 79.797 28.9017 79.1972 28.2301 78.4528C28.1167 79.6679 28.0033 80.8831 27.8899 82.0982C27.2749 83.5059 26.1856 84.2464 24.6219 84.3193C22.7037 83.5955 21.288 82.2975 20.3751 80.4259C18.6432 77.4097 17.5662 74.1776 17.1444 70.7294C16.7922 67.1279 16.1908 63.5746 15.3403 60.0695C15.1036 59.7018 14.8669 59.3343 14.6303 58.9666C12.4134 62.0019 11.85 65.3101 12.9403 68.8913C12.68 69.022 12.4101 69.0696 12.1304 69.034Z" fill="#B6A7B5"/>
<path opacity="0.889" fill-rule="evenodd" clip-rule="evenodd" d="M104.343 25.0883C105.074 26.7277 105.805 28.3672 106.536 30.0067C107.281 33.3317 107.194 36.6462 106.273 39.95C105.634 41.618 104.995 43.2862 104.355 44.9541C105.126 49.7204 104.888 54.4121 103.642 59.0291C102.959 61.0762 101.796 62.7955 100.154 64.1867C98.35 65.5787 96.8581 65.3341 95.6782 63.4526C95.2253 61.957 95.1729 60.4517 95.5213 58.9369C95.9756 57.7517 96.4299 56.5666 96.8842 55.3814C98.6753 52.5692 100.336 49.6817 101.866 46.7187C101.4 43.6222 100.641 40.6125 99.5881 37.6895C99.6149 39.7854 99.4047 41.8444 98.9572 43.8666C97.9251 45.1171 96.6935 45.3751 95.2623 44.6403C95.075 46.1796 94.8877 47.7187 94.7004 49.258C94.0536 50.7004 92.9942 51.1 91.5224 50.4564C90.9806 50.0983 90.5549 49.633 90.2451 49.0605C89.6093 47.961 89.0949 46.8072 88.7022 45.5994C88.2166 43.6235 87.7082 41.6664 87.1768 39.7284C86.6952 40.9842 86.3997 42.2805 86.2901 43.6175C86.2604 45.9623 86.3203 48.3011 86.4701 50.6341C85.8579 51.1305 85.1797 51.3236 84.4356 51.2136C83.3897 50.3751 82.511 49.3839 81.7997 48.2397C82.035 49.9874 81.885 51.692 81.3497 53.3535C79.9135 54.8523 78.4387 54.8909 76.9251 53.4698C76.8427 55.0087 76.804 56.5545 76.8088 58.1073C75.9034 60.2679 74.3919 60.796 72.2744 59.6919C70.911 58.7629 69.8028 57.5827 68.9494 56.1518C68.6684 57.5833 68.1198 58.8832 67.3033 60.0519C66.4376 60.6365 65.4862 60.9515 64.449 60.9967C64.3934 62.2522 64.3374 63.5145 64.2811 64.7838C63.4601 66.6417 62.0972 67.1765 60.1923 66.3882C59.7272 66.1217 59.2946 65.8048 58.8952 65.4378C58.0405 64.4106 57.1618 63.4192 56.2593 62.4639C56.1173 63.6566 55.916 64.8382 55.6558 66.0085C54.87 67.8897 53.4499 68.7047 51.3957 68.4534C50.8735 68.1591 50.367 67.839 49.8759 67.4932C49.433 68.7135 49.0363 69.9459 48.6852 71.1903C47.0211 73.4618 44.8651 74.0954 42.2173 73.091C40.7269 72.1816 39.6825 70.9003 39.0843 69.2469C37.9003 66.754 37.8772 64.2531 39.0151 61.7441C42.6969 58.0785 44.9421 58.7881 45.7508 63.873C45.1871 65.6577 44.0036 66.8403 42.2008 67.4208C42.6487 69.2269 43.6257 70.6839 45.1319 71.7917C45.5814 72.0667 46.054 72.1471 46.5497 72.0331C47.2028 71.5426 47.6915 70.9245 48.0158 70.1785C48.3824 68.9597 48.7488 67.7408 49.1154 66.5221C47.6412 63.5732 47.6075 60.6403 49.0144 57.7233C50.0411 56.4319 51.3667 55.7318 52.9913 55.6229C51.8116 52.3431 51.0382 48.9757 50.6714 45.5204C50.509 43.8487 50.8887 42.333 51.8105 40.9729C52.4746 40.4681 53.2135 40.2479 54.0272 40.3123C54.3756 40.6011 54.6426 40.9551 54.8283 41.3745C56.1651 45.9672 56.8352 50.6544 56.8387 55.4363C57.8511 58.1223 59.0759 60.7061 60.5127 63.1882C61.023 64.0884 61.6887 64.847 62.51 65.4642C62.9031 65.2463 63.1422 64.8849 63.2277 64.3799C63.3096 63.204 63.332 62.0295 63.2946 60.8563C60.6882 58.4645 59.9087 55.573 60.9561 52.1815C61.9848 50.3784 63.5263 49.5091 65.5804 49.5741C64.4608 46.3901 63.8025 43.117 63.6051 39.7548C63.6351 38.737 63.8128 37.748 64.1384 36.7875C65.5399 35.1646 66.647 35.3624 67.4602 37.3811C68.8325 41.5459 69.5359 45.818 69.5705 50.1974C70.6776 52.7765 71.9967 55.2456 73.5276 57.6047C73.971 58.246 74.5452 58.7181 75.2505 59.0203C75.651 58.24 75.8659 57.4162 75.8958 56.549C75.8762 54.9797 75.7967 53.4136 75.6576 51.8512C74.06 49.4835 73.3719 46.8786 73.5935 44.0367C74.8651 42.5346 75.7328 42.7666 76.1964 44.7325C76.8462 46.5526 77.5097 48.3676 78.1871 50.1777C78.6502 51.2689 79.2452 52.2774 79.9725 53.2031C80.7072 52.2657 81.0535 51.165 81.0117 49.9011C80.9058 46.9434 80.2276 44.1157 78.9772 41.4184C79.4087 40.5216 80.127 40.0922 81.1324 40.1301C81.5387 40.3737 81.8666 40.7007 82.1157 41.1111C83.214 43.167 84.283 45.2381 85.3222 47.3245C85.2642 44.5987 85.4436 41.8984 85.8599 39.2236C86.2426 37.3937 87.3486 36.6095 89.1784 36.8708C89.4493 37.0499 89.6622 37.2825 89.8171 37.5688C90.6137 40.7431 91.4103 43.9181 92.2072 47.094C92.4358 48.0374 92.8755 48.8603 93.5262 49.5631C93.9597 47.8442 94.275 46.1023 94.4722 44.3374C94.0406 42.8593 93.6001 41.3814 93.1509 39.904C92.9176 38.0868 93.3037 36.4226 94.3097 34.9109C95.4031 33.8647 96.6853 33.4752 98.156 33.7422C99.5596 32.3424 100.606 32.5675 101.296 34.4171C102.178 36.9099 103.035 39.4033 103.866 41.8968C106.244 35.509 105.252 29.6914 100.89 24.4441C98.6955 22.4579 96.397 22.2815 93.9937 23.9152C92.938 24.7319 92.0615 25.705 91.3644 26.8342C91.0451 27.0846 90.6944 27.2774 90.312 27.4125C90.1321 26.8894 90.199 26.3866 90.5128 25.9036C92.1913 23.5464 94.4309 22.0386 97.2309 21.3802C100.245 21.402 102.616 22.6379 104.343 25.0883ZM53.4116 42.1153C54.9375 45.187 55.7142 48.4802 55.7413 51.995C54.4762 48.8205 53.6998 45.5274 53.4116 42.1153ZM65.8405 37.6665C66.199 37.7233 66.4423 37.9423 66.5702 38.3238C67.5075 40.9371 68.0877 43.6264 68.3107 46.3917C67.0443 43.6098 66.2208 40.7014 65.8405 37.6665ZM96.3959 35.1819C97.1876 35.1834 97.89 35.4526 98.5028 35.9896C98.8081 38.5372 98.5204 40.9946 97.6403 43.3618C96.0116 40.8095 95.5969 38.0829 96.3959 35.1819ZM64.0935 50.8921C65.0459 50.8811 65.8328 51.2581 66.4539 52.0235C67.1299 52.874 67.6237 53.8186 67.9354 54.8569C67.5688 56.0757 67.2024 57.2946 66.8358 58.5134C66.6497 58.9368 66.353 59.2509 65.9459 59.456C64.034 56.873 63.4165 54.0182 64.0935 50.8921ZM41.8496 61.2448C42.6116 61.0176 43.1956 61.2667 43.6022 61.9921C44.697 63.9925 44.2565 65.5355 42.2809 66.6208C41.7711 65.9253 41.5238 65.1256 41.5391 64.222C41.524 63.205 41.6275 62.2127 41.8496 61.2448ZM51.9499 56.9606C52.71 56.9748 53.3989 57.2137 54.0163 57.6772C54.4347 58.8201 54.9051 59.957 55.4275 61.0878C55.3327 63.2172 54.7679 65.2159 53.7332 67.0839C53.0271 66.7951 52.5437 66.2825 52.2835 65.5465C51.1162 62.7001 51.0051 59.8382 51.9499 56.9606ZM101.839 49.3513C102.574 53.8434 101.978 58.2215 100.051 62.4858C98.5863 64.5447 97.5094 64.3332 96.8206 61.8515C96.6695 59.59 97.1363 57.4531 98.2208 55.4406C99.541 53.4625 100.747 51.4327 101.839 49.3513Z" fill="#B6A7B5"/>
<path opacity="0.894" fill-rule="evenodd" clip-rule="evenodd" d="M72.1175 37.0519C74.2726 36.4766 75.3974 37.2854 75.4919 39.4782C74.9437 40.733 73.9824 41.2707 72.608 41.0914C71.0031 39.9097 70.8396 38.5632 72.1175 37.0519Z" fill="#B6A7B5"/>
<path opacity="0.91" fill-rule="evenodd" clip-rule="evenodd" d="M82.4527 61.7056C83.0495 61.4035 83.6703 61.1632 84.3149 60.9846C84.4871 60.9751 84.6492 61.012 84.8011 61.0954C85.6016 61.7778 86.2809 62.5668 86.8389 63.4625C89.4847 67.612 91.3998 72.0717 92.5848 76.8417C93.5055 80.6782 92.7432 84.1116 90.2979 87.1417C89.1604 88.4427 87.7369 89.0046 86.0269 88.8273C83.9144 87.7026 82.1981 86.1386 80.878 84.1349C80.9901 83.7176 81.2497 83.5654 81.6571 83.6784C86.9299 90.055 89.71 89.1068 89.9972 80.8339C89.6025 78.0812 88.7962 75.4564 87.5786 72.9592C87.9971 75.9858 86.6862 77.6985 83.6456 78.0971C81.3499 77.811 79.5699 76.6754 78.3057 74.6908C76.9295 72.5986 75.9887 70.3249 75.4833 67.8695C75.356 67.0515 75.3179 66.2315 75.3691 65.4092C75.9153 64.6379 76.5599 64.5325 77.3027 65.0932C78.9278 67.851 80.4699 70.6574 81.9293 73.5123C82.7165 74.8418 83.8044 75.8127 85.1929 76.4247C85.7452 75.9033 86.0416 75.2617 86.0817 74.4999C86.3008 70.518 85.2403 66.9145 82.9004 63.6896C82.5958 63.0548 82.4464 62.3934 82.4527 61.7056Z" fill="#B6A7B5"/>
<path opacity="0.908" fill-rule="evenodd" clip-rule="evenodd" d="M66.4836 69.4794C68.4663 68.3313 70.1171 68.6873 71.436 70.5472C73.2814 73.4907 74.8105 76.594 76.0231 79.8573C76.9875 82.9176 77.9831 85.9676 79.0102 89.0073C78.9355 90.0193 78.3825 90.4114 77.3509 90.1837C76.4303 88.7895 75.6625 87.3121 75.0475 85.7513C73.6026 86.6287 72.2063 87.5787 70.8588 88.6012C71.2389 89.9241 71.5812 91.2636 71.886 92.6198C71.6091 93.3521 71.1569 93.481 70.5296 93.0061C67.8304 88.3786 66.0564 83.4192 65.2073 78.1279C64.7384 75.6148 64.8335 73.1339 65.4926 70.6855C65.8359 70.2676 66.1664 69.8656 66.4836 69.4794ZM67.6599 71.1387C68.1301 71.2234 68.5051 71.493 68.7848 71.9474C71.2294 75.9447 73.1546 80.1816 74.5603 84.6584C73.1146 85.5232 71.7049 86.4427 70.331 87.4172C68.7012 83.1875 67.7344 78.8144 67.4306 74.298C67.4478 73.2306 67.5243 72.1776 67.6599 71.1387Z" fill="#B6A7B5"/>
<path opacity="0.913" fill-rule="evenodd" clip-rule="evenodd" d="M45.7981 78.9191C46.2142 78.698 46.6527 78.5388 47.1139 78.4418C47.4627 78.542 47.7364 78.7475 47.9347 79.0585C49.8234 81.673 51.4871 84.4253 52.9256 87.3152C52.1543 84.3995 51.9282 81.4431 52.2474 78.4462C53.1248 76.0919 54.8213 75.081 57.337 75.413C59.48 76.2315 61.0983 77.6573 62.1918 79.6906C64.7221 84.1816 65.3753 88.9128 64.1518 93.8841C62.8889 97.6998 60.272 99.6669 56.3011 99.7858C54.8916 98.1307 53.6611 96.3499 52.6096 94.4437C50.4843 90.5928 48.4245 86.707 46.4302 82.7863C45.8014 81.5463 45.5907 80.2574 45.7981 78.9191ZM54.6254 77.1677C56.2286 77.6531 57.4955 78.617 58.4256 80.0593C61.3264 84.3836 62.3374 89.1008 61.4588 94.2111C59.3952 99.8765 57.6029 99.6929 56.0817 93.6602C54.6232 89.6852 53.7782 85.5854 53.5467 81.3608C53.5512 79.8588 53.9109 78.4613 54.6254 77.1677Z" fill="#B6A7B5"/>
<path opacity="0.926" fill-rule="evenodd" clip-rule="evenodd" d="M102.688 84.5662C105.514 83.1518 108.462 82.092 111.534 81.387C112.94 81.1067 114.287 81.2706 115.575 81.8787C116.42 82.6405 116.458 83.4605 115.689 84.339C113.736 85.5049 111.624 86.1553 109.353 86.2901C107.09 86.5468 104.822 86.6843 102.549 86.7028C101.8 86.6019 101.506 86.1871 101.667 85.4583C102.031 85.161 102.372 84.8635 102.688 84.5662Z" fill="#B6A7B5"/>
<path opacity="0.877" fill-rule="evenodd" clip-rule="evenodd" d="M64.4141 102.065C67.3545 100.585 70.4244 99.471 73.6243 98.7235C78.46 98.0811 83.3059 97.5221 88.1624 97.0467C93.0917 96.7414 95.5729 94.143 95.6059 89.252C96.1121 88.6123 96.5576 88.632 96.9425 89.3112C97.395 92.268 96.4119 94.635 93.9939 96.4124C92.1112 97.4359 90.141 98.2415 88.0834 98.8288C83.2159 99.559 78.3364 100.206 73.4444 100.769C70.6102 101.187 67.9787 102.142 65.5498 103.633C63.6382 105.333 62.4727 107.454 62.0536 109.996C61.532 110.759 60.9178 110.851 60.2111 110.271C59.7716 107.673 60.5386 105.475 62.5123 103.677C63.1666 103.125 63.8005 102.588 64.4141 102.065Z" fill="#B6A7B5"/>
<path opacity="0.927" fill-rule="evenodd" clip-rule="evenodd" d="M45.267 111.037C47.391 110.106 49.6044 109.52 51.9072 109.278C53.0996 109.406 53.2553 109.919 52.3747 110.817C49.7033 113.51 46.6072 115.545 43.0865 116.922C41.5428 117.068 40.9041 116.37 41.1705 114.829C42.1698 113.14 43.5352 111.876 45.267 111.037Z" fill="#B6A7B5"/>
<path opacity="0.875" fill-rule="evenodd" clip-rule="evenodd" d="M101.922 87.7463C104.06 87.7986 106.156 88.1743 108.211 88.8733C108.792 89.1967 109.373 89.52 109.954 89.8434C111.072 91.2285 110.726 92.0017 108.914 92.1632C106.343 91.63 104.056 90.502 102.055 88.7789C101.782 88.4653 101.737 88.121 101.922 87.7463Z" fill="#B6A7B5"/>
<path opacity="0.894" fill-rule="evenodd" clip-rule="evenodd" d="M53.9143 111.331C54.4806 110.932 55.0476 110.898 55.6153 111.228C55.1694 114.034 54.234 116.67 52.8093 119.139C52.3274 119.828 51.6865 120.186 50.8867 120.215C50.5323 120.127 50.289 119.908 50.1569 119.557C49.9003 118.772 49.8758 117.982 50.0834 117.188C50.8494 114.877 52.1265 112.925 53.9143 111.331Z" fill="#B6A7B5"/>
</g>
<path d="M286.315 236.892C286.824 240.66 283.108 243.595 279.561 242.227L264.356 236.366C263.679 236.105 262.954 235.994 262.231 236.042L125.382 244.992C122.954 245.151 120.764 243.539 120.194 241.173L89.3534 113.096C88.5961 109.951 90.9795 106.926 94.2145 106.926H264.385C266.888 106.926 269.005 108.776 269.34 111.256L286.315 236.892Z" fill="#DFEFE0"/>
<g opacity="0.2">
<path d="M279.921 241.294C282.759 242.388 285.731 240.04 285.324 237.026L268.349 111.39C268.081 109.406 266.387 107.926 264.385 107.926H94.2145C91.6265 107.926 89.7198 110.346 90.3257 112.862L121.167 240.939C121.622 242.831 123.374 244.121 125.316 243.994L262.166 235.044C263.034 234.987 263.904 235.12 264.715 235.433L279.921 241.294Z" fill="#877D7D" stroke="#435044" stroke-width="2"/>
</g>
<path d="M54.8918 241.564C54.4374 243.451 55.8675 245.267 57.8085 245.267H232.524C233.911 245.267 235.116 244.317 235.441 242.969L267.311 110.628C267.765 108.741 266.335 106.926 264.394 106.926H89.6762C88.2899 106.926 87.0841 107.875 86.7595 109.223L54.8918 241.564Z" fill="#F2EEF2"/>
<path opacity="0.5" d="M55.3779 241.681C54.9992 243.254 56.1909 244.767 57.8084 244.767H232.524C233.68 244.767 234.684 243.975 234.955 242.852L266.825 110.511C267.203 108.938 266.012 107.426 264.394 107.426H89.6762C88.5209 107.426 87.5161 108.217 87.2456 109.34L55.3779 241.681Z" fill="white" stroke="#805780"/>
<path d="M234.888 245.268L263.329 233.343L287.446 245.268L263.329 235.971L234.888 245.268Z" fill="#C5B2C5"/>
<path d="M263.329 233.343H237.76C237.76 233.343 235 243.999 234.5 244.999C234 245.999 263.329 233.343 263.329 233.343Z" fill="#BECDBE"/>
<path opacity="0.1" d="M263 233H237.827L234 245L263 233Z" fill="#778577"/>
<path d="M238.478 106.945C238.019 108.827 238.076 110.298 238.354 111.427C238.632 112.576 239.138 113.362 239.552 113.845C240.43 114.877 241.695 115.49 242.871 115.49C243.021 115.49 243.165 115.482 243.311 115.46C243.902 115.381 244.316 114.838 244.233 114.247C244.15 113.656 243.604 113.238 243.017 113.325C242.554 113.386 241.782 113.145 241.187 112.448C240.935 112.158 240.738 111.813 240.596 111.427C240.155 110.271 240.19 108.73 240.706 106.945C240.72 106.9 240.732 106.853 240.746 106.809C241.553 104.138 243.297 102.948 244.532 103.182C245.628 103.393 246.207 104.746 246.039 106.725C246.034 106.801 246.034 106.876 246.043 106.945H248.181C248.181 106.933 248.185 106.918 248.185 106.906C248.502 103.117 246.634 101.389 244.938 101.068C242.726 100.645 239.865 102.266 238.685 106.183C238.606 106.441 238.539 106.697 238.478 106.945Z" fill="#BDBDBD"/>
<path d="M251.755 106.944C251.292 108.826 251.349 110.302 251.628 111.425C251.906 112.575 252.411 113.361 252.826 113.844C253.707 114.876 254.968 115.489 256.148 115.489C256.294 115.489 256.442 115.481 256.589 115.459C257.18 115.379 257.59 114.837 257.509 114.246C257.425 113.655 256.873 113.237 256.292 113.324C255.829 113.385 255.057 113.143 254.462 112.447C254.211 112.157 254.014 111.811 253.872 111.425C253.431 110.27 253.465 108.729 253.981 106.944C253.995 106.899 254.008 106.852 254.022 106.808C254.828 104.137 256.579 102.951 257.807 103.181C258.9 103.392 259.476 104.744 259.31 106.724C259.306 106.799 259.306 106.874 259.314 106.944H261.456C261.456 106.931 261.46 106.917 261.46 106.905C261.777 103.116 259.909 101.387 258.207 101.067C256 100.644 253.14 102.265 251.959 106.182C251.883 106.44 251.818 106.696 251.755 106.944Z" fill="#BDBDBD"/>
<path d="M211.926 106.945C211.463 108.827 211.52 110.304 211.798 111.427C212.076 112.576 212.582 113.362 212.996 113.845C213.878 114.877 215.139 115.49 216.319 115.49C216.469 115.49 216.613 115.482 216.759 115.46C217.35 115.381 217.76 114.838 217.679 114.247C217.596 113.656 217.044 113.238 216.463 113.325C215.996 113.386 215.228 113.145 214.633 112.448C214.381 112.158 214.184 111.813 214.042 111.427C213.601 110.271 213.636 108.73 214.152 106.945C214.166 106.9 214.178 106.853 214.192 106.809C214.999 104.138 216.745 102.948 217.978 103.182C219.07 103.393 219.647 104.746 219.484 106.725C219.476 106.801 219.48 106.876 219.489 106.945H221.627C221.627 106.933 221.631 106.918 221.631 106.906C221.948 103.117 220.079 101.389 218.378 101.068C216.166 100.645 213.311 102.266 212.129 106.183C212.054 106.441 211.989 106.697 211.926 106.945Z" fill="#BDBDBD"/>
<path d="M225.205 106.945C224.742 108.827 224.799 110.304 225.077 111.427C225.356 112.576 225.861 113.362 226.276 113.845C227.157 114.877 228.418 115.49 229.594 115.49C229.744 115.49 229.894 115.482 230.039 115.46C230.625 115.381 231.04 114.838 230.954 114.247C230.875 113.656 230.329 113.238 229.742 113.325C229.279 113.386 228.507 113.145 227.908 112.448C227.656 112.158 227.459 111.813 227.317 111.427C226.877 110.271 226.911 108.73 227.431 106.945C227.445 106.9 227.457 106.853 227.472 106.809C228.274 104.138 230.024 102.948 231.257 103.182C232.35 103.393 232.926 104.746 232.76 106.725C232.756 106.801 232.756 106.876 232.764 106.945H234.9C234.9 106.933 234.904 106.918 234.904 106.906C235.225 103.117 233.353 101.389 231.657 101.068C229.446 100.645 226.588 102.266 225.408 106.183C225.333 106.441 225.266 106.697 225.205 106.945Z" fill="#BDBDBD"/>
<path d="M198.649 106.945C198.19 108.827 198.249 110.298 198.525 111.427C198.804 112.576 199.309 113.362 199.724 113.845C200.601 114.877 201.866 115.49 203.042 115.49C203.192 115.49 203.336 115.482 203.487 115.46C204.074 115.381 204.488 114.838 204.402 114.247C204.323 113.656 203.773 113.238 203.186 113.325C202.723 113.386 201.951 113.145 201.356 112.448C201.105 112.158 200.908 111.813 200.765 111.427C200.325 110.271 200.359 108.73 200.875 106.945C200.889 106.9 200.901 106.853 200.916 106.809C201.722 104.138 203.472 102.948 204.701 103.182C205.798 103.393 206.376 104.746 206.208 106.725C206.204 106.801 206.204 106.876 206.212 106.945H208.348C208.348 106.933 208.352 106.918 208.352 106.906C208.669 103.117 206.801 101.389 205.105 101.068C202.894 100.645 200.036 102.266 198.852 106.183C198.777 106.441 198.71 106.697 198.649 106.945Z" fill="#BDBDBD"/>
<path d="M185.376 106.945C184.913 108.827 184.97 110.304 185.248 111.427C185.526 112.576 186.032 113.362 186.446 113.845C187.327 114.877 188.588 115.49 189.764 115.49C189.915 115.49 190.065 115.482 190.209 115.46C190.8 115.381 191.21 114.838 191.129 114.247C191.046 113.656 190.499 113.238 189.913 113.325C189.45 113.386 188.678 113.145 188.079 112.448C187.827 112.158 187.63 111.813 187.488 111.427C187.051 110.271 187.086 108.73 187.602 106.945C187.616 106.9 187.628 106.853 187.642 106.809C188.448 104.138 190.195 102.948 191.427 103.182C192.52 103.393 193.097 104.746 192.93 106.725C192.926 106.801 192.926 106.876 192.934 106.945H195.071C195.071 106.933 195.075 106.918 195.075 106.906C195.396 103.117 193.527 101.389 191.828 101.068C189.616 100.645 186.761 102.266 185.579 106.183C185.504 106.441 185.437 106.697 185.376 106.945Z" fill="#BDBDBD"/>
<path d="M172.099 106.945C171.636 108.827 171.693 110.304 171.971 111.427C172.249 112.576 172.755 113.362 173.169 113.845C174.051 114.877 175.316 115.49 176.492 115.49C176.642 115.49 176.786 115.482 176.932 115.46C177.523 115.381 177.933 114.838 177.854 114.247C177.771 113.656 177.219 113.238 176.638 113.325C176.175 113.386 175.403 113.145 174.808 112.448C174.556 112.158 174.359 111.813 174.217 111.427C173.777 110.271 173.811 108.73 174.327 106.945C174.339 106.9 174.353 106.853 174.367 106.809C175.174 104.138 176.924 102.948 178.153 103.182C179.245 103.393 179.822 104.746 179.66 106.725C179.651 106.801 179.656 106.876 179.664 106.945H181.8C181.8 106.933 181.804 106.918 181.804 106.906C182.121 103.117 180.253 101.389 178.557 101.068C176.345 100.645 173.484 102.266 172.304 106.183C172.227 106.441 172.16 106.697 172.099 106.945Z" fill="#BDBDBD"/>
<path d="M145.547 106.945C145.084 108.827 145.141 110.304 145.419 111.427C145.697 112.576 146.203 113.362 146.617 113.845C147.498 114.877 148.76 115.49 149.939 115.49C150.086 115.49 150.234 115.482 150.38 115.46C150.971 115.381 151.381 114.838 151.302 114.247C151.219 113.656 150.673 113.238 150.086 113.325C149.619 113.386 148.851 113.145 148.252 112.448C148 112.158 147.803 111.813 147.661 111.427C147.224 110.271 147.261 108.73 147.777 106.945C147.791 106.9 147.803 106.853 147.815 106.809C148.621 104.138 150.372 102.948 151.601 103.182C152.693 103.393 153.27 104.746 153.103 106.725C153.099 106.801 153.099 106.876 153.107 106.945H155.25C155.25 106.933 155.254 106.918 155.254 106.906C155.571 103.117 153.702 101.389 152.001 101.068C149.793 100.645 146.934 102.266 145.752 106.183C145.675 106.441 145.608 106.697 145.547 106.945Z" fill="#BDBDBD"/>
<path d="M158.825 106.945C158.362 108.827 158.418 110.304 158.697 111.427C158.975 112.576 159.48 113.362 159.895 113.845C160.772 114.877 162.037 115.49 163.213 115.49C163.363 115.49 163.514 115.482 163.658 115.46C164.245 115.381 164.659 114.838 164.574 114.247C164.494 113.656 163.944 113.238 163.361 113.325C162.898 113.386 162.122 113.145 161.527 112.448C161.276 112.158 161.079 111.813 160.937 111.427C160.496 110.271 160.53 108.73 161.05 106.945C161.064 106.9 161.077 106.853 161.089 106.809C161.891 104.138 163.642 102.948 164.87 103.182C165.967 103.393 166.545 104.746 166.377 106.725C166.373 106.801 166.373 106.876 166.381 106.945H168.519C168.519 106.933 168.523 106.918 168.523 106.906C168.84 103.117 166.972 101.389 165.276 101.068C163.069 100.645 160.207 102.266 159.028 106.183C158.952 106.441 158.888 106.697 158.825 106.945Z" fill="#BDBDBD"/>
<path d="M132.27 106.945C131.807 108.827 131.864 110.304 132.142 111.427C132.42 112.576 132.926 113.362 133.34 113.845C134.222 114.877 135.487 115.49 136.663 115.49C136.813 115.49 136.957 115.482 137.103 115.46C137.694 115.381 138.104 114.838 138.025 114.247C137.946 113.656 137.39 113.238 136.809 113.325C136.346 113.386 135.574 113.145 134.981 112.448C134.729 112.158 134.532 111.813 134.39 111.427C133.95 110.271 133.984 108.73 134.5 106.945C134.514 106.9 134.526 106.853 134.54 106.809C135.347 104.138 137.097 102.948 138.326 103.182C139.422 103.393 140.001 104.746 139.833 106.725C139.824 106.801 139.829 106.876 139.837 106.945H141.975C141.975 106.933 141.979 106.918 141.979 106.906C142.296 103.117 140.428 101.389 138.732 101.068C136.52 100.645 133.659 102.266 132.479 106.183C132.398 106.441 132.331 106.697 132.27 106.945Z" fill="#BDBDBD"/>
<path d="M105.717 106.945C105.254 108.827 105.311 110.304 105.589 111.427C105.868 112.576 106.373 113.362 106.788 113.845C107.669 114.877 108.93 115.49 110.11 115.49C110.256 115.49 110.404 115.482 110.55 115.46C111.141 115.381 111.552 114.838 111.472 114.247C111.389 113.656 110.837 113.238 110.256 113.325C109.793 113.386 109.021 113.145 108.428 112.448C108.177 112.158 107.98 111.813 107.837 111.427C107.397 110.271 107.431 108.73 107.947 106.945C107.961 106.9 107.973 106.853 107.988 106.809C108.794 104.138 110.534 102.948 111.773 103.182C112.866 103.393 113.442 104.746 113.28 106.725C113.272 106.801 113.276 106.876 113.284 106.945H115.42C115.42 106.933 115.424 106.918 115.424 106.906C115.741 103.117 113.873 101.389 112.171 101.068C109.96 100.645 107.104 102.266 105.922 106.183C105.845 106.441 105.78 106.697 105.717 106.945Z" fill="#BDBDBD"/>
<path d="M93.5109 113.845C94.3922 114.876 95.6574 115.49 96.8332 115.49C96.9835 115.49 97.1276 115.482 97.2738 115.459C97.8648 115.38 98.2791 114.838 98.1938 114.247C98.1146 113.656 97.5602 113.238 96.9774 113.325C96.5143 113.386 95.7426 113.144 95.1497 112.448C94.1262 111.254 93.9718 109.249 94.709 106.806C95.5152 104.136 97.2657 102.95 98.4943 103.179C99.5909 103.39 100.17 104.743 100.001 106.723C99.9971 106.798 99.9971 106.873 100.005 106.942H102.142C102.142 106.93 102.146 106.916 102.146 106.904C102.462 103.114 100.594 101.386 98.8985 101.065C96.687 100.643 93.8297 102.263 92.6457 106.181C91.3603 110.466 92.6397 112.823 93.5109 113.845Z" fill="#BDBDBD"/>
<path d="M118.997 106.945C118.534 108.827 118.591 110.304 118.869 111.427C119.147 112.576 119.653 113.362 120.067 113.845C120.944 114.877 122.209 115.49 123.385 115.49C123.536 115.49 123.686 115.482 123.83 115.46C124.417 115.381 124.831 114.838 124.746 114.247C124.667 113.656 124.116 113.238 123.534 113.325C123.066 113.386 122.295 113.145 121.7 112.448C121.448 112.158 121.251 111.813 121.109 111.427C120.668 110.271 120.703 108.73 121.223 106.945C121.237 106.9 121.249 106.853 121.263 106.809C122.065 104.138 123.81 102.948 125.044 103.182C126.141 103.393 126.72 104.746 126.551 106.725C126.547 106.801 126.547 106.876 126.555 106.945H128.694C128.694 106.933 128.698 106.918 128.698 106.906C129.015 103.117 127.146 101.389 125.451 101.068C123.239 100.645 120.384 102.266 119.202 106.183C119.125 106.441 119.058 106.697 118.997 106.945Z" fill="#BDBDBD"/>
<path d="M222.614 148.242H241.35L245.838 129.507H227.104L222.614 148.242Z" fill="#AA8EAA"/>
<path d="M200.948 148.242H219.684L224.172 129.507H205.436L200.948 148.242Z" fill="#EEEEEE"/>
<path d="M179.262 148.242H197.998L202.485 129.507H183.752L179.262 148.242Z" fill="#EEEEEE"/>
<path d="M157.585 148.242H176.321L180.809 129.507H162.075L157.585 148.242Z" fill="#EEEEEE"/>
<path d="M135.909 148.242H154.644L159.132 129.507H140.399L135.909 148.242Z" fill="#EEEEEE"/>
<path d="M114.233 148.242H132.968L137.456 129.507H118.723L114.233 148.242Z" fill="#EEEEEE"/>
<path d="M92.5568 148.242H111.293L115.781 129.507H97.0447L92.5568 148.242Z" fill="#EEEEEE"/>
<path d="M217.537 169.431H236.273L240.761 150.695H222.027L217.537 169.431Z" fill="#AA8EAA"/>
<path d="M195.861 169.431H214.597L219.085 150.695H200.351L195.861 169.431Z" fill="#EEEEEE"/>
<path d="M174.184 169.431H192.92L197.408 150.695H178.674L174.184 169.431Z" fill="#EEEEEE"/>
<path d="M152.509 169.431H171.244L175.732 150.695H156.999L152.509 169.431Z" fill="#EEEEEE"/>
<path d="M130.832 169.431H149.568L154.056 150.695H135.322L130.832 169.431Z" fill="#EEEEEE"/>
<path d="M109.156 169.431H127.892L132.38 150.695H113.644L109.156 169.431Z" fill="#EEEEEE"/>
<path d="M87.4797 169.431H106.215L110.703 150.695H91.9676L87.4797 169.431Z" fill="#EEEEEE"/>
<path d="M212.46 190.62H231.196L235.684 171.886H216.95L212.46 190.62Z" fill="#AA8EAA"/>
<path d="M190.784 190.62H209.52L214.008 171.886H195.274L190.784 190.62Z" fill="#EEEEEE"/>
<path d="M169.108 190.62H187.844L192.332 171.886H173.598L169.108 190.62Z" fill="#EEEEEE"/>
<path d="M147.431 190.62H166.167L170.655 171.886H151.919L147.431 190.62Z" fill="#EEEEEE"/>
<path d="M125.755 190.62H144.491L148.979 171.886H130.243L125.755 190.62Z" fill="#EEEEEE"/>
<path d="M104.079 190.62H122.815L127.303 171.886H108.567L104.079 190.62Z" fill="#EEEEEE"/>
<path d="M82.4025 190.62H101.138L105.626 171.886H86.8905L82.4025 190.62Z" fill="#EEEEEE"/>
<path d="M207.383 211.811H226.119L230.607 193.075H211.873L207.383 211.811Z" fill="#AA8EAA"/>
<path d="M185.707 211.811H204.442L208.93 193.075H190.197L185.707 211.811Z" fill="#EEEEEE"/>
<path d="M164.031 211.811H182.767L187.255 193.075H168.519L164.031 211.811Z" fill="#EEEEEE"/>
<path d="M142.355 211.811H161.091L165.579 193.075H146.843L142.355 211.811Z" fill="#EEEEEE"/>
<path d="M120.678 211.811H139.414L143.902 193.075H125.166L120.678 211.811Z" fill="#EEEEEE"/>
<path d="M99.0025 211.811H117.738L122.226 193.075H103.49L99.0025 211.811Z" fill="#EEEEEE"/>
<path d="M77.326 211.811H96.0617L100.55 193.075H81.8139L77.326 211.811Z" fill="#EEEEEE"/>
<path d="M202.307 233H221.042L225.53 214.264H206.795L202.307 233Z" fill="#AA8EAA"/>
<path d="M180.63 233H199.366L203.854 214.264H185.118L180.63 233Z" fill="#EEEEEE"/>
<path d="M158.954 233H177.69L182.178 214.264H163.442L158.954 233Z" fill="#EEEEEE"/>
<path d="M137.278 233H156.013L160.501 214.264H141.766L137.278 233Z" fill="#EEEEEE"/>
<path d="M115.601 233H134.337L138.825 214.264H120.089L115.601 233Z" fill="#EEEEEE"/>
<path d="M93.9253 233H112.661L117.149 214.264H98.4133L93.9253 233Z" fill="#EEEEEE"/>
<path d="M72.2487 233H90.9844L95.4724 214.264H76.7366L72.2487 233Z" fill="#EEEEEE"/>
<path d="M239.812 124.84C239.914 124.75 240.036 124.677 240.182 124.623C240.326 124.568 240.482 124.539 240.651 124.539C240.899 124.539 241.067 124.586 241.159 124.679C241.25 124.773 241.276 124.901 241.238 125.061C241.218 125.144 241.187 125.215 241.142 125.268C241.1 125.323 241.041 125.37 240.968 125.408C240.895 125.449 240.805 125.481 240.7 125.512C240.594 125.54 240.47 125.571 240.33 125.599C240.172 125.632 240.03 125.666 239.9 125.707C239.77 125.746 239.656 125.796 239.558 125.855C239.459 125.914 239.378 125.987 239.313 126.07C239.248 126.156 239.201 126.259 239.171 126.387C239.14 126.517 239.138 126.629 239.164 126.722C239.191 126.818 239.242 126.897 239.317 126.96C239.392 127.023 239.487 127.07 239.603 127.1C239.721 127.13 239.851 127.145 239.999 127.145C240.434 127.145 240.842 127.009 241.224 126.739L241.138 126.513C241.075 126.566 241.004 126.617 240.923 126.663C240.842 126.71 240.755 126.753 240.661 126.787C240.568 126.822 240.468 126.85 240.367 126.871C240.265 126.891 240.159 126.899 240.052 126.899C239.828 126.899 239.664 126.858 239.556 126.779C239.451 126.698 239.416 126.578 239.457 126.414C239.477 126.326 239.514 126.253 239.562 126.194C239.613 126.135 239.678 126.083 239.759 126.04C239.841 125.997 239.938 125.959 240.05 125.928C240.164 125.896 240.294 125.865 240.44 125.833C240.596 125.798 240.734 125.764 240.852 125.727C240.972 125.691 241.075 125.644 241.167 125.589C241.256 125.534 241.329 125.467 241.386 125.39C241.443 125.313 241.486 125.218 241.512 125.104C241.542 124.974 241.547 124.86 241.522 124.759C241.498 124.657 241.449 124.574 241.376 124.507C241.303 124.44 241.209 124.389 241.098 124.352C240.986 124.316 240.856 124.3 240.708 124.3C240.521 124.3 240.348 124.328 240.188 124.385C240.028 124.442 239.877 124.521 239.733 124.625L239.812 124.84Z" fill="#37474F"/>
<path d="M237.426 126.889C237.249 126.889 237.111 126.854 237.01 126.787C236.908 126.72 236.835 126.633 236.793 126.523C236.75 126.413 236.73 126.289 236.736 126.149C236.742 126.009 236.762 125.869 236.795 125.727L237.134 124.311H236.858L236.518 125.727C236.474 125.916 236.451 126.097 236.451 126.267C236.453 126.438 236.484 126.586 236.547 126.716C236.61 126.846 236.705 126.947 236.839 127.025C236.971 127.102 237.146 127.138 237.361 127.138C237.582 127.138 237.779 127.098 237.95 127.018C238.121 126.937 238.267 126.832 238.391 126.7C238.515 126.568 238.616 126.417 238.697 126.249C238.777 126.08 238.84 125.906 238.882 125.727L239.221 124.311H238.949L238.61 125.727C238.576 125.875 238.527 126.017 238.464 126.157C238.401 126.298 238.324 126.421 238.226 126.529C238.131 126.637 238.017 126.724 237.885 126.789C237.751 126.856 237.599 126.889 237.426 126.889Z" fill="#37474F"/>
<path d="M235.797 124.828L235.249 127.119H235.525L236.198 124.314H235.984L233.568 126.649L234.126 124.318H233.85L233.18 127.119H233.421L235.797 124.828Z" fill="#37474F"/>
<path d="M217.271 127.119L217.824 124.816L218.421 126.597H218.583L220.033 124.816L219.481 127.119H219.757L220.429 124.314H220.145L218.591 126.233L217.949 124.314H217.669L216.997 127.119H217.271Z" fill="#37474F"/>
<path d="M215.158 127.139C215.352 127.139 215.539 127.098 215.722 127.019C215.903 126.938 216.067 126.832 216.216 126.698C216.364 126.566 216.49 126.414 216.593 126.241C216.697 126.071 216.772 125.894 216.815 125.715C216.859 125.528 216.869 125.35 216.843 125.177C216.817 125.007 216.76 124.854 216.674 124.722C216.587 124.59 216.471 124.487 216.331 124.407C216.191 124.328 216.025 124.292 215.838 124.292C215.643 124.292 215.454 124.332 215.273 124.416C215.09 124.499 214.928 124.606 214.78 124.74C214.634 124.875 214.508 125.027 214.404 125.197C214.301 125.368 214.227 125.541 214.185 125.717C214.14 125.904 214.13 126.083 214.156 126.253C214.183 126.424 214.238 126.576 214.325 126.706C214.41 126.836 214.526 126.942 214.668 127.019C214.806 127.1 214.971 127.139 215.158 127.139ZM216.536 125.715C216.5 125.868 216.441 126.016 216.356 126.156C216.27 126.296 216.171 126.422 216.053 126.532C215.935 126.641 215.805 126.729 215.663 126.792C215.521 126.857 215.373 126.889 215.216 126.889C215.058 126.889 214.924 126.855 214.81 126.786C214.699 126.716 214.609 126.627 214.546 126.517C214.483 126.406 214.445 126.282 214.428 126.142C214.412 126.002 214.422 125.859 214.457 125.715C214.493 125.563 214.554 125.417 214.64 125.275C214.725 125.134 214.826 125.009 214.944 124.901C215.062 124.793 215.192 124.706 215.334 124.641C215.476 124.576 215.623 124.544 215.777 124.544C215.935 124.544 216.069 124.576 216.183 124.645C216.297 124.712 216.384 124.801 216.447 124.911C216.51 125.021 216.549 125.147 216.565 125.287C216.581 125.429 216.571 125.571 216.536 125.715Z" fill="#37474F"/>
<path d="M213.596 124.828L213.047 127.119H213.324L213.996 124.314H213.783L211.366 126.649L211.924 124.318H211.648L210.978 127.119H211.22L213.596 124.828Z" fill="#37474F"/>
<path d="M195.861 124.559H196.86L196.247 127.119H196.523L197.136 124.559H198.135L198.194 124.313H195.918L195.861 124.559Z" fill="#37474F"/>
<path d="M193.745 126.889C193.568 126.889 193.43 126.854 193.329 126.787C193.227 126.72 193.156 126.633 193.111 126.523C193.067 126.413 193.049 126.29 193.055 126.149C193.061 126.009 193.081 125.869 193.113 125.727L193.453 124.312H193.176L192.837 125.727C192.793 125.916 192.77 126.097 192.77 126.267C192.772 126.438 192.803 126.586 192.866 126.716C192.929 126.846 193.026 126.948 193.158 127.025C193.29 127.102 193.465 127.138 193.68 127.138C193.901 127.138 194.098 127.098 194.269 127.019C194.44 126.937 194.586 126.832 194.71 126.7C194.834 126.568 194.935 126.417 195.014 126.249C195.093 126.08 195.156 125.906 195.199 125.727L195.538 124.312H195.266L194.927 125.727C194.892 125.875 194.842 126.017 194.781 126.158C194.718 126.298 194.639 126.422 194.543 126.529C194.448 126.637 194.334 126.724 194.202 126.789C194.072 126.856 193.92 126.889 193.745 126.889Z" fill="#37474F"/>
<path d="M190.019 126.873L189.96 127.119H191.844L192.516 124.314H190.668L190.609 124.56H192.181L191.94 125.571H190.569L190.512 125.805H191.883L191.627 126.875L190.019 126.873Z" fill="#37474F"/>
<path d="M175.955 124.334H175.695L175.062 125.329L174.901 124.334H174.637L174.84 125.53L174 126.799L173.579 124.314H173.279L173.797 127.118H174.042L174.964 125.731L175.224 127.118H175.466L177.324 124.314H177.028L175.413 126.799L175.184 125.53L175.955 124.334Z" fill="#37474F"/>
<path d="M170.385 126.873L170.326 127.118H172.211L172.883 124.314H171.035L170.976 124.56H172.548L172.306 125.571H170.935L170.878 125.804H172.249L171.993 126.875L170.385 126.873Z" fill="#37474F"/>
<path d="M169.805 127.118L170.477 124.314H169.524C169.301 124.314 169.096 124.35 168.911 124.426C168.726 124.499 168.562 124.6 168.42 124.726C168.277 124.852 168.158 125 168.06 125.171C167.963 125.341 167.892 125.522 167.845 125.715C167.794 125.928 167.78 126.121 167.8 126.294C167.823 126.466 167.877 126.615 167.965 126.737C168.052 126.858 168.17 126.954 168.32 127.021C168.468 127.088 168.645 127.122 168.85 127.122H169.805V127.118ZM168.123 125.713C168.164 125.544 168.225 125.39 168.306 125.248C168.387 125.108 168.487 124.986 168.6 124.882C168.716 124.779 168.846 124.7 168.992 124.643C169.138 124.586 169.295 124.558 169.467 124.558H170.142L169.587 126.873H168.911C168.736 126.873 168.59 126.842 168.472 126.783C168.355 126.724 168.261 126.643 168.198 126.538C168.133 126.434 168.095 126.31 168.082 126.17C168.07 126.032 168.084 125.878 168.123 125.713Z" fill="#37474F"/>
<path d="M152.762 124.559H153.761L153.148 127.119H153.424L154.037 124.559H155.036L155.095 124.313H152.819L152.762 124.559Z" fill="#37474F"/>
<path d="M150.189 124.314L149.517 127.119H149.789L150.103 125.807H151.767L151.452 127.119H151.728L152.4 124.314H152.124L151.826 125.563H150.162L150.461 124.314H150.189Z" fill="#37474F"/>
<path d="M147.731 126.889C147.555 126.889 147.417 126.854 147.315 126.787C147.214 126.72 147.143 126.633 147.098 126.523C147.053 126.413 147.035 126.29 147.041 126.149C147.047 126.009 147.067 125.869 147.102 125.727L147.441 124.312H147.165L146.826 125.727C146.781 125.916 146.759 126.097 146.759 126.267C146.761 126.438 146.793 126.586 146.854 126.716C146.917 126.846 147.015 126.948 147.147 127.025C147.279 127.102 147.451 127.138 147.669 127.138C147.89 127.138 148.087 127.098 148.257 127.019C148.428 126.937 148.574 126.832 148.698 126.7C148.822 126.568 148.924 126.417 149.005 126.249C149.084 126.08 149.147 125.906 149.19 125.727L149.529 124.312H149.257L148.917 125.727C148.883 125.875 148.832 126.017 148.771 126.158C148.708 126.298 148.629 126.422 148.534 126.529C148.438 126.637 148.324 126.724 148.192 126.789C148.058 126.856 147.906 126.889 147.731 126.889Z" fill="#37474F"/>
<path d="M131.253 127.118L131.925 124.314H130.083L130.024 124.56H131.588L131.34 125.591H130.02L129.965 125.821H131.285L130.975 127.12L131.253 127.118Z" fill="#37474F"/>
<path d="M128.925 127.118L129.598 124.314H128.412C128.29 124.314 128.174 124.34 128.06 124.391C127.947 124.442 127.843 124.509 127.75 124.592C127.656 124.675 127.577 124.769 127.51 124.874C127.443 124.98 127.398 125.086 127.372 125.195C127.347 125.299 127.339 125.396 127.347 125.49C127.356 125.583 127.378 125.666 127.412 125.741C127.449 125.817 127.5 125.88 127.563 125.932C127.626 125.983 127.705 126.018 127.794 126.038L126.848 127.12H127.161L128.068 126.085H128.897L128.649 127.12L128.925 127.118ZM128.956 125.839H128.04C127.959 125.839 127.888 125.821 127.829 125.786C127.77 125.752 127.725 125.703 127.691 125.642C127.658 125.581 127.638 125.512 127.63 125.437C127.622 125.36 127.628 125.28 127.648 125.195C127.668 125.112 127.703 125.031 127.752 124.951C127.8 124.874 127.857 124.805 127.922 124.748C127.987 124.69 128.058 124.645 128.137 124.61C128.215 124.576 128.292 124.56 128.369 124.56H129.26L128.956 125.839Z" fill="#37474F"/>
<path d="M126.346 127.118L127.018 124.314H126.742L126.07 127.118H126.346Z" fill="#37474F"/>
<path d="M109.063 124.84C109.162 124.75 109.286 124.677 109.43 124.623C109.575 124.568 109.731 124.539 109.899 124.539C110.147 124.539 110.316 124.586 110.407 124.679C110.498 124.773 110.523 124.901 110.486 125.061C110.466 125.144 110.436 125.215 110.391 125.268C110.348 125.323 110.289 125.37 110.216 125.408C110.143 125.447 110.054 125.481 109.948 125.512C109.843 125.54 109.719 125.571 109.579 125.599C109.42 125.632 109.278 125.666 109.148 125.707C109.018 125.746 108.904 125.796 108.807 125.855C108.707 125.914 108.626 125.987 108.561 126.07C108.496 126.156 108.449 126.259 108.419 126.387C108.389 126.517 108.387 126.629 108.413 126.722C108.439 126.818 108.49 126.897 108.565 126.96C108.64 127.023 108.736 127.07 108.852 127.1C108.967 127.13 109.099 127.145 109.248 127.145C109.682 127.145 110.09 127.009 110.47 126.739L110.385 126.513C110.322 126.566 110.251 126.617 110.17 126.663C110.088 126.71 110.001 126.753 109.908 126.787C109.814 126.822 109.715 126.85 109.613 126.871C109.512 126.891 109.406 126.899 109.298 126.899C109.075 126.899 108.91 126.858 108.803 126.779C108.697 126.698 108.665 126.578 108.703 126.414C108.724 126.326 108.76 126.253 108.809 126.194C108.858 126.135 108.925 126.083 109.006 126.04C109.087 125.997 109.185 125.959 109.296 125.928C109.41 125.896 109.54 125.865 109.686 125.833C109.843 125.798 109.981 125.764 110.098 125.727C110.218 125.691 110.322 125.644 110.413 125.589C110.503 125.534 110.576 125.467 110.633 125.39C110.689 125.313 110.732 125.218 110.758 125.104C110.789 124.974 110.793 124.86 110.769 124.759C110.744 124.657 110.695 124.574 110.622 124.507C110.549 124.44 110.456 124.389 110.344 124.352C110.232 124.316 110.103 124.3 109.954 124.3C109.767 124.3 109.595 124.328 109.434 124.385C109.274 124.442 109.124 124.521 108.98 124.625L109.063 124.84Z" fill="#37474F"/>
<path d="M107.608 124.314H107.375L105.537 127.119H105.829L106.404 126.241H107.663L107.813 127.119H108.11L107.608 124.314ZM106.518 126.024L107.415 124.637L107.655 126.024H106.518Z" fill="#37474F"/>
<path d="M104.033 124.56H105.032L104.418 127.121H104.695L105.308 124.56H106.307L106.366 124.314H104.089L104.033 124.56Z" fill="#37474F"/>
<path d="M207.672 134.147H219.714L219.938 133.213H207.895L207.672 134.147Z" fill="#C7C7C7"/>
<path d="M212.407 136.2H219.223L219.446 135.264H212.633L212.407 136.2Z" fill="#C7C7C7"/>
<path d="M165.881 218.859H177.923L178.149 217.925H166.106L165.881 218.859Z" fill="#C7C7C7"/>
<path d="M170.618 220.913H177.432L177.657 219.977H170.842L170.618 220.913Z" fill="#C7C7C7"/>
<path d="M127.788 197.296H139.83L140.055 196.362H128.013L127.788 197.296Z" fill="#C7C7C7"/>
<path d="M132.54 201.404H138.848L139.071 200.468H132.764L132.54 201.404Z" fill="#C7C7C7"/>
<path d="M130.657 199.35H139.339L139.562 198.414H130.881L130.657 199.35Z" fill="#C7C7C7"/>
<defs>
<clipPath id="clip0_698_18596">
<rect width="102.116" height="102.116" fill="white" transform="translate(0 41.5776) rotate(-24.0266)"/>
</clipPath>
</defs>
</svg>
