<svg width="344" height="428" viewBox="0 0 344 428" fill="none" xmlns="http://www.w3.org/2000/svg">
<path fill-rule="evenodd" clip-rule="evenodd" d="M136.695 136.116C129.013 145.318 116.357 148.499 102.758 148.405C87.0702 148.296 69.1449 148.007 55.8172 135.556C42.3838 123.006 42.0432 105.076 39.0948 88.9281C36.0292 72.1382 30.1276 53.694 38.7325 41.9862C47.9181 29.4885 65.7128 25.9658 83.7099 28.2254C101.566 30.4673 121.602 38.2875 134.208 53.9735C145.794 68.3908 141.778 85.1594 142.261 101.084C142.651 113.972 144.011 127.352 136.695 136.116Z" fill="url(#paint0_linear_698_18865)" fill-opacity="0.41"/>
<path fill-rule="evenodd" clip-rule="evenodd" d="M333.426 185.015C336.437 196.618 331.657 208.761 323.665 219.764C314.445 232.457 303.777 246.865 285.895 250.455C267.871 254.074 253.093 243.914 238.246 236.913C222.809 229.633 204.376 223.696 199.864 209.884C195.048 195.141 202.542 178.62 214.854 165.301C227.071 152.087 245.092 140.346 265.184 139.226C283.651 138.197 294.949 151.222 308.179 160.099C318.886 167.283 330.558 173.965 333.426 185.015Z" fill="url(#paint1_linear_698_18865)" fill-opacity="0.41"/>
<path fill-rule="evenodd" clip-rule="evenodd" d="M156.598 291.572C165.736 299.331 168.81 312.014 168.601 325.612C168.361 341.298 167.922 359.22 155.359 372.443C142.697 385.77 124.765 385.96 108.592 388.773C91.7772 391.698 73.284 397.444 61.649 388.741C49.2288 379.451 45.8557 361.627 48.2663 343.65C50.6581 325.813 58.6463 305.843 74.4376 293.37C88.9516 281.906 105.686 286.062 121.614 285.713C134.505 285.431 147.896 284.183 156.598 291.572Z" fill="url(#paint2_linear_698_18865)" fill-opacity="0.41"/>
<path d="M88.3377 118.398V127.853H87.1928V119.599H87.1374L84.8291 121.131V119.968L87.1928 118.398H88.3377ZM94.0852 127.982C93.4512 127.982 92.891 127.87 92.4048 127.645C91.9216 127.418 91.5446 127.105 91.2737 126.708C91.0029 126.308 90.869 125.853 90.8721 125.342C90.869 124.942 90.9475 124.572 91.1075 124.234C91.2676 123.892 91.4861 123.607 91.7631 123.38C92.0431 123.149 92.3555 123.003 92.7002 122.941V122.886C92.2478 122.769 91.8877 122.515 91.62 122.124C91.3522 121.73 91.2199 121.282 91.223 120.781C91.2199 120.3 91.3414 119.871 91.5877 119.493C91.8339 119.114 92.1724 118.816 92.6033 118.597C93.0372 118.378 93.5312 118.269 94.0852 118.269C94.633 118.269 95.1223 118.378 95.5532 118.597C95.9841 118.816 96.3226 119.114 96.5688 119.493C96.8181 119.871 96.9443 120.3 96.9474 120.781C96.9443 121.282 96.8073 121.73 96.5365 122.124C96.2688 122.515 95.9133 122.769 95.4701 122.886V122.941C95.8117 123.003 96.1195 123.149 96.3934 123.38C96.6673 123.607 96.8858 123.892 97.0489 124.234C97.2121 124.572 97.2952 124.942 97.2982 125.342C97.2952 125.853 97.1567 126.308 96.8828 126.708C96.6119 127.105 96.2349 127.418 95.7517 127.645C95.2716 127.87 94.7161 127.982 94.0852 127.982ZM94.0852 126.967C94.513 126.967 94.8823 126.897 95.1931 126.759C95.504 126.62 95.744 126.425 95.9133 126.173C96.0826 125.92 96.1687 125.625 96.1718 125.286C96.1687 124.929 96.0764 124.614 95.8948 124.34C95.7132 124.066 95.4655 123.851 95.1516 123.694C94.8407 123.537 94.4853 123.458 94.0852 123.458C93.682 123.458 93.3219 123.537 93.0049 123.694C92.691 123.851 92.4432 124.066 92.2617 124.34C92.0832 124.614 91.9954 124.929 91.9985 125.286C91.9954 125.625 92.077 125.92 92.2432 126.173C92.4125 126.425 92.6541 126.62 92.968 126.759C93.2819 126.897 93.6543 126.967 94.0852 126.967ZM94.0852 122.479C94.4237 122.479 94.7238 122.412 94.9854 122.276C95.2501 122.141 95.4578 121.952 95.6086 121.708C95.7594 121.465 95.8364 121.181 95.8394 120.854C95.8364 120.534 95.7609 120.256 95.6132 120.019C95.4655 119.779 95.2608 119.594 94.9992 119.465C94.7376 119.333 94.4329 119.266 94.0852 119.266C93.7312 119.266 93.4219 119.333 93.1573 119.465C92.8926 119.594 92.6879 119.779 92.5433 120.019C92.3986 120.256 92.3278 120.534 92.3309 120.854C92.3278 121.181 92.4002 121.465 92.5479 121.708C92.6987 121.952 92.9064 122.141 93.1711 122.276C93.4358 122.412 93.7405 122.479 94.0852 122.479ZM99.88 126.644C99.6523 126.644 99.4568 126.562 99.2937 126.399C99.1306 126.236 99.049 126.04 99.049 125.813C99.049 125.585 99.1306 125.389 99.2937 125.226C99.4568 125.063 99.6523 124.982 99.88 124.982C100.108 124.982 100.303 125.063 100.466 125.226C100.629 125.389 100.711 125.585 100.711 125.813C100.711 125.963 100.672 126.102 100.596 126.228C100.522 126.354 100.422 126.456 100.295 126.533C100.172 126.607 100.034 126.644 99.88 126.644ZM99.88 121.861C99.6523 121.861 99.4568 121.779 99.2937 121.616C99.1306 121.453 99.049 121.258 99.049 121.03C99.049 120.802 99.1306 120.607 99.2937 120.444C99.4568 120.28 99.6523 120.199 99.88 120.199C100.108 120.199 100.303 120.28 100.466 120.444C100.629 120.607 100.711 120.802 100.711 121.03C100.711 121.181 100.672 121.319 100.596 121.445C100.522 121.572 100.422 121.673 100.295 121.75C100.172 121.824 100.034 121.861 99.88 121.861ZM105.731 127.982C105.036 127.982 104.443 127.793 103.954 127.414C103.465 127.033 103.091 126.48 102.832 125.757C102.574 125.031 102.444 124.154 102.444 123.126C102.444 122.104 102.574 121.231 102.832 120.508C103.094 119.782 103.469 119.228 103.959 118.846C104.451 118.462 105.042 118.269 105.731 118.269C106.421 118.269 107.01 118.462 107.499 118.846C107.992 119.228 108.367 119.782 108.626 120.508C108.888 121.231 109.018 122.104 109.018 123.126C109.018 124.154 108.889 125.031 108.631 125.757C108.372 126.48 107.998 127.033 107.509 127.414C107.019 127.793 106.427 127.982 105.731 127.982ZM105.731 126.967C106.421 126.967 106.956 126.634 107.338 125.97C107.72 125.305 107.91 124.357 107.91 123.126C107.91 122.307 107.823 121.61 107.647 121.034C107.475 120.459 107.226 120.02 106.899 119.719C106.576 119.417 106.187 119.266 105.731 119.266C105.048 119.266 104.514 119.603 104.129 120.277C103.745 120.948 103.552 121.898 103.552 123.126C103.552 123.944 103.639 124.64 103.811 125.212C103.983 125.785 104.231 126.22 104.554 126.519C104.88 126.817 105.273 126.967 105.731 126.967ZM113.856 127.982C113.161 127.982 112.568 127.793 112.079 127.414C111.59 127.033 111.216 126.48 110.957 125.757C110.699 125.031 110.569 124.154 110.569 123.126C110.569 122.104 110.699 121.231 110.957 120.508C111.219 119.782 111.594 119.228 112.084 118.846C112.576 118.462 113.167 118.269 113.856 118.269C114.546 118.269 115.135 118.462 115.624 118.846C116.117 119.228 116.492 119.782 116.751 120.508C117.013 121.231 117.143 122.104 117.143 123.126C117.143 124.154 117.014 125.031 116.756 125.757C116.497 126.48 116.123 127.033 115.634 127.414C115.144 127.793 114.552 127.982 113.856 127.982ZM113.856 126.967C114.546 126.967 115.081 126.634 115.463 125.97C115.845 125.305 116.035 124.357 116.035 123.126C116.035 122.307 115.948 121.61 115.772 121.034C115.6 120.459 115.351 120.02 115.024 119.719C114.701 119.417 114.312 119.266 113.856 119.266C113.173 119.266 112.639 119.603 112.254 120.277C111.87 120.948 111.677 121.898 111.677 123.126C111.677 123.944 111.764 124.64 111.936 125.212C112.108 125.785 112.356 126.22 112.679 126.519C113.005 126.817 113.398 126.967 113.856 126.967Z" fill="#A0AFA1"/>
<path d="M84.2708 142.836C83.1863 142.543 82.644 141.924 82.644 140.98C82.644 140.61 82.7397 140.329 82.9311 140.138C83.1353 139.934 83.3075 139.832 83.4479 139.832C83.6775 139.832 83.8115 139.902 83.8498 140.042L83.8689 140.119C83.5372 140.119 83.3075 140.304 83.1799 140.674C83.1417 140.801 83.1225 140.929 83.1225 141.056C83.1225 141.388 83.2501 141.663 83.5053 141.879C83.7732 142.096 84.0603 142.249 84.3665 142.339C84.8003 139.761 85.081 138.205 85.2086 137.669C85.6935 135.704 86.3825 134.619 87.2756 134.415C87.3905 134.39 87.5053 134.377 87.6201 134.377C87.8115 134.377 87.9391 134.454 88.0029 134.607L88.022 134.702C87.4861 134.702 87.0715 134.996 86.778 135.583C86.4973 136.17 86.2995 136.82 86.1847 137.535C86.0826 138.249 86.0061 138.811 85.955 139.219C85.904 139.627 85.8402 140.17 85.7637 140.846C85.6999 141.509 85.6424 142.052 85.5914 142.473C87.1608 142.422 88.4558 141.726 89.4766 140.387C90.3314 139.264 90.7589 138.045 90.7589 136.731C90.7589 135.251 90.2357 134.186 89.1895 133.535C88.5771 133.165 87.8306 132.98 86.9503 132.98C84.475 132.98 82.593 133.86 81.3043 135.621C80.4112 136.82 79.9646 138.16 79.9646 139.64C79.9646 141.095 80.3474 142.122 81.113 142.722C81.4574 143.002 81.853 143.143 82.2996 143.143C82.1847 143.436 81.987 143.583 81.7063 143.583C80.6345 143.583 79.8753 143.034 79.4287 141.937C79.1863 141.35 79.0651 140.718 79.0651 140.042C79.0651 139.366 79.1799 138.651 79.4096 137.899C79.9582 136.112 80.9854 134.728 82.4909 133.745C83.7541 132.916 85.2405 132.501 86.9503 132.501C89.1066 132.501 90.5802 133.197 91.3713 134.588C91.7413 135.226 91.9263 135.876 91.9263 136.54C91.9263 137.203 91.8179 137.86 91.601 138.511C91.1161 139.966 90.2357 141.114 88.9598 141.956C87.9263 142.619 86.7844 142.958 85.534 142.97C85.1512 145.675 84.5196 147.57 83.6393 148.655C83.2948 149.088 82.8546 149.439 82.3187 149.707C81.7828 149.975 81.1895 150.109 80.5388 150.109C79.8881 150.109 79.333 149.994 78.8737 149.765C78.4144 149.535 78.089 149.241 77.8976 148.884C77.6042 148.361 77.4575 147.883 77.4575 147.449C77.4575 147.015 77.5213 146.613 77.6488 146.243C77.7764 145.86 77.9614 145.49 78.2039 145.133C78.4463 144.763 78.7653 144.463 79.1608 144.233C79.5563 144.004 79.9838 143.889 80.4431 143.889C80.711 143.889 80.8833 143.978 80.9598 144.157L81.0173 144.253C79.9072 144.253 79.0651 144.725 78.4909 145.669C78.1464 146.218 77.9742 146.766 77.9742 147.315C77.9742 147.583 78.0125 147.844 78.089 148.1C78.357 149.095 79.0523 149.592 80.1752 149.592C80.6728 149.592 81.1257 149.465 81.534 149.21C81.9423 148.954 82.2804 148.629 82.5484 148.233C82.8291 147.851 83.0842 147.34 83.3139 146.702C83.6584 145.745 83.9774 144.457 84.2708 142.836ZM95.8494 132.521C96.4236 132.521 96.7106 132.903 96.7106 133.669C96.7106 133.86 96.6915 134.084 96.6532 134.339C96.4618 135.551 95.9578 136.801 95.1413 138.09C94.5543 139.021 93.9993 139.608 93.4762 139.851C93.221 141.229 92.9977 142.479 92.8063 143.602H92.9403C94.0121 141.216 95.0966 140.023 96.1939 140.023C96.5894 140.023 96.8956 140.144 97.1125 140.387C97.3422 140.629 97.457 140.961 97.457 141.382C97.457 141.803 97.2912 142.728 96.9594 144.157C96.6277 145.573 96.4618 146.562 96.4618 147.123C96.4618 147.953 96.6149 148.367 96.9212 148.367C96.9212 148.457 96.8637 148.546 96.7489 148.635C96.6341 148.725 96.5001 148.769 96.347 148.769C95.607 148.769 95.237 148.189 95.237 147.028C95.237 146.313 95.422 145.254 95.792 143.851C96.1747 142.434 96.3661 141.522 96.3661 141.114C96.3661 140.706 96.2066 140.501 95.8877 140.501C95.5177 140.501 95.1094 140.814 94.6628 141.439C94.2162 142.064 93.8015 142.862 93.4188 143.832C92.7808 145.388 92.3023 146.69 91.9834 147.736C91.9068 147.991 91.7984 148.119 91.658 148.119C91.4283 148.119 91.2561 147.978 91.1413 147.698C91.0775 147.544 91.0456 147.385 91.0456 147.219C91.0456 147.041 91.0966 146.722 91.1987 146.262C91.3008 145.79 91.473 144.967 91.7154 143.793C91.9451 142.619 92.1429 141.65 92.3087 140.884C92.4746 140.106 92.666 139.238 92.8829 138.281C93.0998 137.312 93.3039 136.527 93.4953 135.927C93.6995 135.315 93.9291 134.728 94.1843 134.167C94.6692 133.069 95.2242 132.521 95.8494 132.521ZM96.2704 133.707C96.2704 133.299 96.1556 133.05 95.9259 132.961C95.1732 132.961 94.3948 135.066 93.591 139.277C94.1014 138.919 94.6309 138.205 95.1795 137.133C95.9068 135.691 96.2704 134.549 96.2704 133.707ZM100.293 145.592C100.293 146.932 100.65 147.602 101.364 147.602C101.849 147.602 102.302 147.302 102.723 146.702C103.527 145.58 104.018 144.1 104.197 142.262C103.75 142.071 103.438 141.758 103.259 141.324C103.144 141.056 103.087 140.833 103.087 140.655C103.087 140.463 103.112 140.297 103.163 140.157C103.278 139.812 103.489 139.64 103.795 139.64C104.101 139.64 104.331 139.838 104.484 140.233C104.65 140.616 104.733 141.108 104.733 141.707C104.733 141.745 104.733 141.79 104.733 141.841C104.886 141.892 105.109 141.918 105.403 141.918C105.709 141.918 105.977 141.796 106.206 141.554C106.436 141.312 106.551 141.088 106.551 140.884C106.551 140.833 106.583 140.801 106.647 140.789C106.71 140.763 106.768 140.763 106.819 140.789C106.883 140.814 106.915 140.852 106.915 140.903C106.915 141.273 106.755 141.624 106.436 141.956C106.13 142.288 105.715 142.454 105.192 142.454C105.064 142.454 104.899 142.441 104.694 142.415C104.618 143.283 104.433 144.144 104.139 144.999C103.859 145.841 103.463 146.575 102.953 147.2C102.442 147.812 101.894 148.119 101.307 148.119C100.197 148.119 99.5143 147.525 99.2591 146.339C99.1953 145.994 99.1634 145.643 99.1634 145.286C99.1634 144.482 99.3484 143.621 99.7184 142.702C100.203 141.503 100.803 140.757 101.517 140.463C101.887 140.336 102.143 140.316 102.283 140.406C102.423 140.495 102.513 140.597 102.551 140.712C101.964 140.712 101.441 141.261 100.982 142.358C100.522 143.455 100.293 144.533 100.293 145.592ZM106.839 139.755C106.839 139.615 106.929 139.545 107.107 139.545H108.102C108.166 139.289 108.249 138.97 108.351 138.588L108.619 137.592C108.696 137.299 108.76 137.031 108.811 136.789C108.874 136.546 108.989 136.425 109.155 136.425C109.372 136.425 109.525 136.591 109.614 136.923C109.653 137.063 109.672 137.235 109.672 137.439C109.672 137.643 109.634 137.905 109.557 138.224L109.193 139.545H110.38C110.495 139.545 110.571 139.583 110.61 139.659C110.661 139.736 110.661 139.812 110.61 139.889C110.571 139.953 110.495 139.985 110.38 139.985H109.079C108.287 142.958 107.892 145.063 107.892 146.3C107.892 147.206 108.096 147.659 108.504 147.659C108.836 147.659 109.302 147.219 109.901 146.339C110.501 145.458 111.018 144.578 111.452 143.698L112.102 142.377H112.619C112.543 142.53 112.441 142.741 112.313 143.009C112.198 143.264 111.962 143.73 111.605 144.406C111.248 145.069 110.903 145.656 110.571 146.167C110.252 146.677 109.889 147.143 109.48 147.564C109.085 147.972 108.715 148.176 108.37 148.176C108.026 148.176 107.726 148.068 107.471 147.851C107.228 147.621 107.075 147.302 107.012 146.894C106.935 146.473 106.897 146.045 106.897 145.611C106.897 144.604 107.254 142.728 107.968 139.985H107.107C107.005 139.985 106.935 139.959 106.897 139.908C106.858 139.844 106.839 139.793 106.839 139.755ZM112.535 145.592C112.535 146.932 112.892 147.602 113.606 147.602C114.091 147.602 114.544 147.302 114.965 146.702C115.769 145.58 116.26 144.1 116.439 142.262C115.992 142.071 115.68 141.758 115.501 141.324C115.386 141.056 115.329 140.833 115.329 140.655C115.329 140.463 115.354 140.297 115.405 140.157C115.52 139.812 115.731 139.64 116.037 139.64C116.343 139.64 116.573 139.838 116.726 140.233C116.892 140.616 116.975 141.108 116.975 141.707C116.975 141.745 116.975 141.79 116.975 141.841C117.128 141.892 117.351 141.918 117.645 141.918C117.951 141.918 118.219 141.796 118.448 141.554C118.678 141.312 118.793 141.088 118.793 140.884C118.793 140.833 118.825 140.801 118.889 140.789C118.952 140.763 119.01 140.763 119.061 140.789C119.125 140.814 119.157 140.852 119.157 140.903C119.157 141.273 118.997 141.624 118.678 141.956C118.372 142.288 117.957 142.454 117.434 142.454C117.307 142.454 117.141 142.441 116.937 142.415C116.86 143.283 116.675 144.144 116.381 144.999C116.101 145.841 115.705 146.575 115.195 147.2C114.685 147.812 114.136 148.119 113.549 148.119C112.439 148.119 111.756 147.525 111.501 146.339C111.437 145.994 111.405 145.643 111.405 145.286C111.405 144.482 111.59 143.621 111.96 142.702C112.445 141.503 113.045 140.757 113.759 140.463C114.13 140.336 114.385 140.316 114.525 140.406C114.665 140.495 114.755 140.597 114.793 140.712C114.206 140.712 113.683 141.261 113.224 142.358C112.764 143.455 112.535 144.533 112.535 145.592ZM121.971 137.899H122.01C122.124 137.911 122.214 137.962 122.277 138.052C122.341 138.141 122.373 138.237 122.373 138.339C122.373 138.428 122.284 138.626 122.105 138.932C121.939 139.238 121.856 139.487 121.856 139.678C121.856 139.857 121.882 140.029 121.933 140.195C121.984 140.348 122.144 140.731 122.411 141.344C122.998 142.683 123.292 143.883 123.292 144.942C123.292 145.988 123.005 146.855 122.431 147.544C121.869 148.233 121.193 148.578 120.402 148.578C119.624 148.578 119.234 148.106 119.234 147.162C119.234 146.205 119.573 145.184 120.249 144.1C120.644 143.474 121.072 143.002 121.531 142.683C121.659 142.594 121.742 142.613 121.78 142.741C121.831 142.868 121.805 142.97 121.703 143.047C120.963 143.583 120.389 144.431 119.981 145.592C119.611 146.639 119.573 147.366 119.866 147.774C119.968 147.927 120.115 148.004 120.306 148.004C120.868 148.004 121.308 147.627 121.627 146.875C121.946 146.122 122.105 145.184 122.105 144.061C122.105 143.092 121.99 142.192 121.761 141.363C121.531 140.533 121.403 140.055 121.378 139.927C120.995 140.655 120.581 141.471 120.134 142.377H119.617C120.344 140.935 120.906 139.851 121.301 139.123C121.352 138.307 121.576 137.899 121.971 137.899Z" fill="#5B3E5B"/>
<path d="M62 104.536C68.568 104.37 75.133 104.362 81.693 104.508C88.254 104.626 94.811 104.888 101.364 105.197C107.916 105.543 114.465 105.938 121.005 106.47C127.547 106.974 134.079 107.629 140.6 108.43C134.03 108.405 127.47 108.271 120.916 108.028C114.361 107.813 107.812 107.504 101.264 107.193C94.717 106.845 88.171 106.498 81.627 106.061C75.083 105.652 68.542 105.142 62 104.536Z" fill="#5B3E5B"/>
<path d="M124.822 107.351C124.71 95.93 124.598 84.509 124.486 73.088C124.479 72.422 123.025 72.702 123.03 73.242C123.142 84.663 123.254 96.084 123.366 107.505C123.372 108.17 124.827 107.891 124.822 107.351Z" fill="#5B3E5B"/>
<path d="M113.37 71.3411C116.359 72.2211 119.316 73.1931 122.244 74.2591C122.898 74.4971 123.939 73.5581 123.069 73.2411C120.141 72.1741 117.184 71.2021 114.195 70.3231C113.537 70.1291 112.49 71.0811 113.37 71.3411Z" fill="#5B3E5B"/>
<path d="M71.547 65.88C84.483 65.619 97.231 67.139 109.762 70.341C110.421 70.509 111.471 69.549 110.587 69.323C97.816 66.059 84.841 64.496 71.661 64.763C70.815 64.78 70.563 65.9 71.547 65.88Z" fill="#5B3E5B"/>
<path d="M124.188 73.552C126.412 71.776 128.636 70.001 130.86 68.225C131.458 67.748 130.023 67.881 129.732 68.113C127.508 69.889 125.284 71.664 123.06 73.44C122.463 73.917 123.898 73.784 124.188 73.552Z" fill="#5B3E5B"/>
<path d="M129.89 68.361C130.442 81.589 130.767 94.828 130.863 108.067C130.866 108.51 132.316 108.237 132.312 107.679C132.216 94.44 131.891 81.201 131.339 67.973C131.32 67.518 129.866 67.806 129.89 68.361Z" fill="#5B3E5B"/>
<path d="M72.585 65.0761C74.835 62.4811 77.511 60.4071 80.584 58.8741C81.466 58.4341 80.68 57.5951 79.929 57.9701C76.643 59.6091 73.769 61.8381 71.363 64.6131C70.758 65.3081 72.132 65.5981 72.585 65.0761Z" fill="#5B3E5B"/>
<path d="M80.007 58.557C80.884 58.598 81.762 58.679 82.641 58.679C82.939 58.679 83.435 58.576 83.599 58.292C83.763 58.008 83.459 57.8971 83.215 57.8971C82.336 57.8971 81.459 57.816 80.581 57.775C80.287 57.761 79.782 57.8861 79.623 58.1621C79.454 58.4531 79.767 58.546 80.007 58.557Z" fill="#5B3E5B"/>
<path d="M83.699 59.6371C83.605 57.8921 83.718 56.1941 84.041 54.4771C83.649 54.6301 83.258 54.7831 82.866 54.9361C85.19 55.2881 87.52 55.6021 89.856 55.8601C90.79 55.9631 92.445 55.8031 93.014 56.5411C93.638 57.3521 93.232 59.3601 93.212 60.3581C93.205 60.7101 94.65 60.4761 94.661 59.9701C94.691 58.5411 94.72 57.1111 94.75 55.6811C94.752 55.5811 94.536 55.5271 94.48 55.5221C90.898 55.1981 87.331 54.7671 83.775 54.2291C83.486 54.1851 82.672 54.3081 82.6 54.6881C82.264 56.4721 82.151 58.2131 82.249 60.0241C82.271 60.4041 83.726 60.1321 83.699 59.6371Z" fill="#5B3E5B"/>
<path d="M83.991 54.58C85.778 52.67 89.099 53.449 91.318 53.769C92.029 53.871 93.419 53.779 94.012 54.159C94.959 54.766 93.927 55.098 93.135 55.829C92.537 56.38 93.963 56.311 94.283 56.016C94.983 55.37 95.683 54.725 96.384 54.08C96.588 53.892 96.578 53.664 96.26 53.619C92.164 53.027 85.965 51.046 82.652 54.588C82.263 55.002 83.694 54.898 83.991 54.58Z" fill="#5B3E5B"/>
<path d="M95.569 54.36C95.569 56.36 95.569 58.36 95.569 60.36C95.569 60.584 97.018 60.383 97.018 59.972C97.018 57.972 97.018 55.972 97.018 53.972C97.018 53.748 95.569 53.949 95.569 54.36Z" fill="#5B3E5B"/>
<path d="M96.37 59.627C99.463 59.92 102.493 60.456 105.498 61.245C106.074 61.396 107.21 60.55 106.349 60.323C103.234 59.504 100.096 58.944 96.889 58.64C96.223 58.578 95.392 59.534 96.37 59.627Z" fill="#5B3E5B"/>
<path d="M110.895 65.674C106.935 64.491 106.638 62.482 106.649 58.736C106.654 57.077 106.677 55.418 106.719 53.76C106.735 53.131 106.529 51.834 106.795 51.273C107.499 49.787 109.531 49.812 110.823 49.917C112.512 50.054 116.75 50.033 117.581 51.75C118.083 52.787 117.446 55.4581 117.381 56.6191C117.284 58.3581 117.167 60.095 117.032 61.832C116.893 63.603 117.15 66.849 114.628 65.611C114.25 65.425 113.095 66.023 113.263 66.105C116.614 67.751 117.907 68.023 118.263 64.047C118.607 60.199 119.118 56.1831 119.017 52.317C118.941 49.416 116.34 49.798 113.802 49.515C110.92 49.194 105.965 47.78 105.347 51.663C104.847 54.804 104.847 58.8931 105.224 62.0611C105.539 64.7131 107.318 65.524 109.706 66.237C110.037 66.335 111.313 65.798 110.895 65.674Z" fill="#5B3E5B"/>
<path d="M108.76 53.5781C108.271 55.7971 107.688 58.7931 108.279 61.0431C108.707 62.6701 110.467 63.0821 111.968 63.1351C112.964 63.1701 114.188 62.9361 114.616 61.9131C114.944 61.1291 114.708 59.8951 114.7 59.0871C114.684 57.5131 114.669 55.9391 114.653 54.3641C114.627 54.3041 114.582 54.2661 114.517 54.2501C113.018 53.8181 111.511 53.2071 109.938 53.1301C109.575 53.1121 108.271 53.7611 109.019 53.7981C110.102 53.8511 112.583 54.2031 113.099 55.1211C113.49 55.8161 113.23 57.2371 113.237 58.0211C113.248 59.1031 113.326 60.2111 113.27 61.2901C113.203 62.5631 112.234 62.5411 111.186 62.1771C110.119 61.8061 109.803 61.0701 109.654 60.0001C109.35 57.8281 109.73 55.4721 110.198 53.3501C110.287 52.9411 108.85 53.1681 108.76 53.5781Z" fill="#A0AFA1"/>
<path d="M109.694 66.0271C109.769 69.5271 109.844 73.0261 109.918 76.5261C109.923 76.7501 111.375 76.5361 111.367 76.1381C111.292 72.6381 111.217 69.1391 111.143 65.6391C111.138 65.4161 109.685 65.6291 109.694 66.0271Z" fill="#5B3E5B"/>
<path d="M112.832 66.223C112.892 69.557 112.951 72.892 113.011 76.226C113.024 76.968 114.488 76.737 114.477 76.108C114.417 72.774 114.358 69.439 114.298 66.105C114.284 65.363 112.82 65.594 112.832 66.223Z" fill="#5B3E5B"/>
<path d="M117.646 64.2241C121.381 65.7601 125.117 67.296 128.852 68.831C129.186 68.968 130.497 68.435 130.036 68.245C126.301 66.709 122.566 65.1731 118.83 63.6381C118.496 63.5011 117.185 64.0351 117.646 64.2241Z" fill="#5B3E5B"/>
<path d="M90.921 96.1321C95.338 96.1321 99.754 96.1321 104.171 96.1321C104.68 96.1321 105.721 95.3661 104.75 95.3661C100.333 95.3661 95.917 95.3661 91.5 95.3661C90.991 95.3661 89.949 96.1321 90.921 96.1321Z" fill="#5B3E5B"/>
<path d="M71.934 73.327C75.935 73.651 79.936 73.975 83.936 74.299C84.564 74.35 85.449 73.449 84.471 73.369C80.47 73.045 76.469 72.721 72.469 72.397C71.84 72.346 70.955 73.248 71.934 73.327Z" fill="#A0AFA1"/>
<path d="M71.991 89.5481C74.908 89.5481 77.824 89.5481 80.741 89.5481C81.054 89.5481 82.382 88.9501 81.679 88.9501C78.762 88.9501 75.846 88.9501 72.929 88.9501C72.616 88.9501 71.289 89.5481 71.991 89.5481Z" fill="#A0AFA1"/>
<path d="M106.487 92.738C111.779 92.679 116.843 93.587 121.777 95.492C122.171 95.644 123.263 95.05 123.144 95.004C118.078 93.048 112.859 92.1 107.431 92.161C107.131 92.165 105.798 92.746 106.487 92.738Z" fill="#A0AFA1"/>
<path d="M106.945 79.667C112.088 80.749 117.132 82.1551 122.094 83.8841C122.758 84.1151 123.792 83.1611 122.917 82.8561C117.843 81.0881 112.687 79.658 107.43 78.551C106.678 78.393 105.986 79.465 106.945 79.667Z" fill="#A0AFA1"/>
<path d="M90.768 70.464C77.532 72.481 75.559 95.8901 90.781 96.5511C104.888 97.1641 102.476 66.014 89.273 70.93C88.416 71.249 88.673 72.314 89.556 71.986C95.853 69.642 98.956 78.558 98.906 82.893C98.834 89.079 95.921 97.245 87.705 94.627C77.428 91.352 80.833 73.082 90.655 71.585C91.471 71.461 91.746 70.315 90.768 70.464Z" fill="#5B3E5B"/>
<path d="M94.529 72.07C96.491 72.919 98.446 73.782 100.386 74.682C103.884 76.304 105.675 77.131 105.925 81.361C106.192 85.867 105.901 90.341 105.245 94.801C105.131 95.575 106.615 95.413 106.719 94.712C107.21 91.371 107.514 88.021 107.504 84.641C107.498 82.642 107.844 79.13 106.951 77.247C106.336 75.95 105.404 75.707 104.107 75.021C101.285 73.529 98.279 72.306 95.351 71.039C94.693 70.753 93.673 71.699 94.529 72.07Z" fill="#5B3E5B"/>
<path d="M91.587 74.9051C83.698 74.0421 78.316 89.2061 86.933 91.6971C95.787 94.2561 98.968 78.5591 90.809 75.7301C90.489 75.6191 89.207 76.1411 89.616 76.2831C97.188 78.9091 93.902 94.3531 87.021 90.6531C84.824 89.4711 83.893 86.7961 83.991 84.4251C84.106 81.6371 86.792 75.0641 90.394 75.4591C90.732 75.4951 91.949 74.9441 91.587 74.9051Z" fill="#5B3E5B"/>
<path d="M86.895 78.97C87.954 82.51 89.164 85.993 90.527 89.427C90.714 89.897 92.143 89.461 91.976 89.039C90.613 85.605 89.403 82.122 88.344 78.582C88.204 78.115 86.757 78.512 86.895 78.97Z" fill="#A0AFA1"/>
<path d="M89.808 79.4251C90.219 81.0931 90.63 82.7611 91.04 84.4291C91.127 84.7821 92.58 84.4111 92.489 84.0411C92.078 82.3731 91.667 80.7051 91.256 79.0371C91.17 78.6851 89.716 79.0551 89.808 79.4251Z" fill="#A0AFA1"/>
<path d="M71.249 65.515C71.297 78.802 71.459 92.098 72.353 105.358C72.367 105.563 73.826 105.326 73.802 104.97C72.908 91.709 72.746 78.413 72.698 65.127C72.697 64.949 71.247 65.139 71.249 65.515Z" fill="#5B3E5B"/>
<path d="M249.947 205.354V214.809H248.802V206.554H248.747L246.439 208.087V206.924L248.802 205.354H249.947ZM255.676 205.225C256.064 205.228 256.452 205.302 256.84 205.446C257.228 205.591 257.581 205.831 257.902 206.166C258.222 206.499 258.479 206.953 258.672 207.528C258.866 208.104 258.963 208.826 258.963 209.693C258.963 210.534 258.883 211.28 258.723 211.932C258.566 212.582 258.339 213.13 258.04 213.576C257.745 214.022 257.384 214.361 256.96 214.592C256.538 214.822 256.061 214.938 255.529 214.938C254.999 214.938 254.527 214.833 254.111 214.624C253.699 214.411 253.36 214.118 253.096 213.742C252.834 213.364 252.666 212.925 252.593 212.426H253.719C253.821 212.86 254.022 213.219 254.324 213.502C254.628 213.782 255.03 213.922 255.529 213.922C256.258 213.922 256.834 213.604 257.255 212.967C257.68 212.329 257.892 211.429 257.892 210.266H257.818C257.646 210.524 257.441 210.748 257.204 210.935C256.967 211.123 256.704 211.268 256.415 211.369C256.126 211.471 255.818 211.522 255.492 211.522C254.95 211.522 254.453 211.388 254.001 211.12C253.551 210.849 253.191 210.478 252.92 210.007C252.653 209.533 252.519 208.992 252.519 208.382C252.519 207.804 252.648 207.274 252.907 206.794C253.168 206.311 253.534 205.926 254.005 205.64C254.479 205.354 255.036 205.215 255.676 205.225ZM255.676 206.24C255.289 206.24 254.939 206.337 254.628 206.531C254.321 206.722 254.076 206.98 253.894 207.307C253.716 207.63 253.627 207.988 253.627 208.382C253.627 208.776 253.713 209.135 253.885 209.458C254.061 209.778 254.299 210.034 254.601 210.224C254.905 210.412 255.252 210.506 255.639 210.506C255.932 210.506 256.204 210.449 256.457 210.335C256.709 210.218 256.929 210.06 257.117 209.86C257.308 209.657 257.457 209.427 257.565 209.172C257.672 208.913 257.726 208.644 257.726 208.364C257.726 207.995 257.637 207.648 257.458 207.325C257.283 207.002 257.04 206.74 256.729 206.54C256.421 206.34 256.07 206.24 255.676 206.24ZM261.591 213.599C261.364 213.599 261.168 213.517 261.005 213.354C260.842 213.191 260.76 212.996 260.76 212.768C260.76 212.54 260.842 212.345 261.005 212.182C261.168 212.019 261.364 211.937 261.591 211.937C261.819 211.937 262.014 212.019 262.178 212.182C262.341 212.345 262.422 212.54 262.422 212.768C262.422 212.919 262.384 213.057 262.307 213.184C262.233 213.31 262.133 213.411 262.007 213.488C261.884 213.562 261.745 213.599 261.591 213.599ZM261.591 208.816C261.364 208.816 261.168 208.735 261.005 208.572C260.842 208.409 260.76 208.213 260.76 207.985C260.76 207.758 260.842 207.562 261.005 207.399C261.168 207.236 261.364 207.154 261.591 207.154C261.819 207.154 262.014 207.236 262.178 207.399C262.341 207.562 262.422 207.758 262.422 207.985C262.422 208.136 262.384 208.275 262.307 208.401C262.233 208.527 262.133 208.629 262.007 208.706C261.884 208.779 261.745 208.816 261.591 208.816ZM267.443 214.938C266.747 214.938 266.155 214.748 265.665 214.37C265.176 213.988 264.802 213.436 264.543 212.713C264.285 211.986 264.156 211.109 264.156 210.081C264.156 209.059 264.285 208.187 264.543 207.464C264.805 206.737 265.181 206.183 265.67 205.802C266.162 205.417 266.753 205.225 267.443 205.225C268.132 205.225 268.721 205.417 269.211 205.802C269.703 206.183 270.079 206.737 270.337 207.464C270.599 208.187 270.73 209.059 270.73 210.081C270.73 211.109 270.6 211.986 270.342 212.713C270.083 213.436 269.709 213.988 269.22 214.37C268.731 214.748 268.138 214.938 267.443 214.938ZM267.443 213.922C268.132 213.922 268.668 213.59 269.049 212.925C269.431 212.26 269.622 211.312 269.622 210.081C269.622 209.263 269.534 208.565 269.358 207.99C269.186 207.414 268.937 206.976 268.611 206.674C268.287 206.373 267.898 206.222 267.443 206.222C266.759 206.222 266.225 206.559 265.841 207.233C265.456 207.904 265.264 208.853 265.264 210.081C265.264 210.9 265.35 211.595 265.522 212.168C265.695 212.74 265.942 213.176 266.265 213.474C266.592 213.773 266.984 213.922 267.443 213.922ZM275.568 214.938C274.872 214.938 274.28 214.748 273.79 214.37C273.301 213.988 272.927 213.436 272.668 212.713C272.41 211.986 272.281 211.109 272.281 210.081C272.281 209.059 272.41 208.187 272.668 207.464C272.93 206.737 273.306 206.183 273.795 205.802C274.287 205.417 274.878 205.225 275.568 205.225C276.257 205.225 276.846 205.417 277.336 205.802C277.828 206.183 278.204 206.737 278.462 207.464C278.724 208.187 278.855 209.059 278.855 210.081C278.855 211.109 278.725 211.986 278.467 212.713C278.208 213.436 277.834 213.988 277.345 214.37C276.856 214.748 276.263 214.938 275.568 214.938ZM275.568 213.922C276.257 213.922 276.793 213.59 277.174 212.925C277.556 212.26 277.747 211.312 277.747 210.081C277.747 209.263 277.659 208.565 277.483 207.99C277.311 207.414 277.062 206.976 276.736 206.674C276.412 206.373 276.023 206.222 275.568 206.222C274.884 206.222 274.35 206.559 273.966 207.233C273.581 207.904 273.389 208.853 273.389 210.081C273.389 210.9 273.475 211.595 273.647 212.168C273.82 212.74 274.067 213.176 274.39 213.474C274.717 213.773 275.109 213.922 275.568 213.922Z" fill="#A0AFA1"/>
<path d="M239.383 233.332C239.524 233.332 239.664 233.345 239.804 233.371C239.957 233.383 240.085 233.396 240.187 233.409C240.289 233.422 240.429 233.46 240.608 233.524C240.787 233.575 240.908 233.613 240.972 233.639C241.048 233.651 241.189 233.702 241.393 233.792C241.61 233.868 241.737 233.919 241.776 233.945C241.814 233.958 241.954 234.015 242.197 234.117C242.452 234.219 242.586 234.277 242.599 234.289C243.224 233.575 243.753 232.465 244.187 230.959C242.286 230.832 240.921 230.066 240.091 228.663C239.645 227.884 239.422 227.042 239.422 226.136C239.422 225.613 239.492 225.071 239.632 224.509C240.066 222.915 240.965 221.664 242.331 220.758C243.517 219.98 244.908 219.591 246.503 219.591C247.626 219.591 248.627 219.776 249.508 220.146C250.401 220.516 251.109 221.013 251.632 221.639C252.168 222.251 252.595 222.959 252.914 223.763C253.246 224.605 253.412 225.479 253.412 226.385C253.412 227.291 253.335 228.178 253.182 229.045C253.042 229.9 252.761 230.73 252.34 231.533C251.932 232.337 251.46 233.052 250.924 233.677C250.388 234.289 249.737 234.781 248.972 235.151C248.219 235.521 247.364 235.706 246.407 235.706C245.45 235.706 244.398 235.482 243.249 235.036C242.522 235.584 241.642 235.859 240.608 235.859C239.243 235.859 238.375 235.54 238.005 234.902C237.916 234.736 237.871 234.557 237.871 234.366C237.871 234.162 237.999 233.938 238.254 233.696C238.509 233.454 238.886 233.332 239.383 233.332ZM243.651 234.71C244.608 235.042 245.495 235.208 246.311 235.208C247.128 235.208 247.843 235.036 248.455 234.691C249.067 234.347 249.597 233.881 250.043 233.294C250.49 232.707 250.892 232.037 251.249 231.285C251.606 230.519 251.855 229.722 251.996 228.892C252.136 228.05 252.206 227.214 252.206 226.385C252.206 225.543 252.072 224.745 251.804 223.993C251.549 223.227 251.198 222.551 250.752 221.964C250.305 221.377 249.699 220.911 248.933 220.567C248.168 220.222 247.294 220.05 246.311 220.05C244.219 220.05 242.618 220.79 241.508 222.27C240.729 223.291 240.34 224.439 240.34 225.715C240.34 227.45 240.933 228.765 242.12 229.658C242.758 230.13 243.492 230.411 244.321 230.5C244.474 229.887 244.653 229.064 244.857 228.031C245.074 226.985 245.259 226.13 245.412 225.466C245.565 224.79 245.756 224.101 245.986 223.399C246.458 221.983 247.166 221.275 248.11 221.275C248.289 221.275 248.41 221.358 248.474 221.524L248.493 221.6C247.677 221.6 247.109 222.264 246.79 223.591C246.624 224.241 246.49 224.905 246.388 225.581C246.299 226.257 246.184 227.08 246.044 228.05C245.916 229.007 245.776 229.817 245.622 230.481C246.516 230.353 247.262 230.015 247.862 229.466C248.474 228.918 248.902 228.254 249.144 227.476C249.157 227.412 249.195 227.374 249.259 227.361C249.335 227.348 249.393 227.361 249.431 227.399C249.482 227.438 249.501 227.495 249.488 227.572C249.208 228.439 248.729 229.179 248.053 229.792C247.377 230.404 246.528 230.781 245.508 230.921C245.099 232.643 244.481 233.907 243.651 234.71ZM238.445 234.5C238.445 234.742 238.618 234.94 238.962 235.093C239.307 235.259 239.798 235.342 240.436 235.342C241.074 235.342 241.68 235.106 242.254 234.634C240.978 234.085 240.059 233.811 239.498 233.811C238.949 233.811 238.611 233.97 238.484 234.289C238.458 234.366 238.445 234.436 238.445 234.5ZM257.567 223.61C257.861 223.61 258.008 223.808 258.008 224.203C258.008 224.599 257.816 224.918 257.433 225.16C257.242 225.288 257.076 225.352 256.936 225.352C256.732 225.352 256.611 225.288 256.572 225.16L256.553 225.103C256.668 225.103 256.751 224.982 256.802 224.739C256.853 224.484 256.929 224.235 257.032 223.993C257.146 223.738 257.325 223.61 257.567 223.61ZM256.343 234.615C256.674 234.615 257.14 234.174 257.74 233.294C258.339 232.414 258.856 231.533 259.29 230.653L259.941 229.332H260.457C260.381 229.485 260.279 229.696 260.151 229.964C260.036 230.219 259.8 230.685 259.443 231.361C259.086 232.025 258.741 232.611 258.41 233.122C258.091 233.632 257.727 234.098 257.319 234.519C256.923 234.927 256.579 235.131 256.285 235.131C255.341 235.131 254.869 234.519 254.869 233.294C254.869 232.375 255.13 230.883 255.654 228.816C255.705 228.599 255.743 228.433 255.768 228.318C255.807 228.203 255.845 228.056 255.883 227.878C255.922 227.686 255.96 227.514 255.998 227.361C256.062 227.093 256.177 226.959 256.343 226.959C256.572 226.959 256.738 227.125 256.84 227.457C256.891 227.61 256.917 227.795 256.917 228.012C256.917 228.229 256.891 228.458 256.84 228.701C256.789 228.93 256.706 229.275 256.591 229.734C256.477 230.194 256.387 230.57 256.323 230.863C256.26 231.157 256.189 231.514 256.113 231.935C255.973 232.637 255.902 233.262 255.902 233.811C255.902 234.347 256.049 234.615 256.343 234.615ZM259.625 235.074C259.267 235.074 259.089 234.8 259.089 234.251C259.089 233.958 259.446 231.82 260.161 227.84C260.199 227.572 260.314 227.438 260.505 227.438C260.735 227.438 260.907 227.604 261.022 227.935C261.086 228.114 261.118 228.312 261.118 228.529C261.118 228.733 261.092 228.956 261.041 229.198L260.735 230.73H260.85C261.998 228.152 263.095 226.863 264.141 226.863C264.55 226.863 264.862 226.991 265.079 227.246C265.296 227.489 265.405 227.827 265.405 228.261C265.405 228.694 265.232 229.632 264.888 231.074C264.543 232.516 264.371 233.517 264.371 234.079C264.371 234.908 264.524 235.323 264.83 235.323C264.83 235.412 264.773 235.501 264.658 235.591C264.543 235.68 264.409 235.725 264.256 235.725C263.516 235.725 263.146 235.144 263.146 233.983C263.146 233.269 263.338 232.19 263.72 230.749C264.116 229.294 264.314 228.369 264.314 227.974C264.314 227.565 264.154 227.361 263.835 227.361C263.376 227.361 262.821 227.961 262.17 229.16C261.532 230.36 261.015 231.508 260.62 232.605C260.237 233.69 260.014 234.372 259.95 234.653C259.899 234.934 259.791 235.074 259.625 235.074ZM267.404 235.074C267.047 235.074 266.869 234.8 266.869 234.251C266.869 233.958 267.226 231.82 267.94 227.84C267.979 227.572 268.093 227.438 268.285 227.438C268.515 227.438 268.687 227.604 268.802 227.935C268.865 228.114 268.897 228.312 268.897 228.529C268.897 228.733 268.872 228.956 268.821 229.198L268.515 230.73H268.629C269.778 228.152 270.875 226.863 271.921 226.863C272.33 226.863 272.642 226.991 272.859 227.246C273.076 227.489 273.184 227.827 273.184 228.261C273.184 228.694 273.012 229.632 272.668 231.074C272.323 232.516 272.151 233.517 272.151 234.079C272.151 234.908 272.304 235.323 272.61 235.323C272.61 235.412 272.553 235.501 272.438 235.591C272.323 235.68 272.189 235.725 272.036 235.725C271.296 235.725 270.926 235.144 270.926 233.983C270.926 233.269 271.117 232.19 271.5 230.749C271.896 229.294 272.093 228.369 272.093 227.974C272.093 227.565 271.934 227.361 271.615 227.361C271.156 227.361 270.601 227.961 269.95 229.16C269.312 230.36 268.795 231.508 268.4 232.605C268.017 233.69 267.794 234.372 267.73 234.653C267.679 234.934 267.57 235.074 267.404 235.074ZM275.95 232.28C275.95 233.824 276.498 234.596 277.596 234.596C278.004 234.596 278.431 234.417 278.878 234.06C279.337 233.69 279.752 233.249 280.122 232.739C280.939 231.565 281.513 230.608 281.845 229.868L282.093 229.332H282.61C282.393 229.843 282.074 230.474 281.653 231.227C281.232 231.967 280.83 232.592 280.447 233.103C280.065 233.613 279.612 234.079 279.089 234.5C278.565 234.908 278.068 235.112 277.596 235.112C275.707 235.112 274.763 234.053 274.763 231.935C274.763 230.953 275.05 229.97 275.624 228.988C276.416 227.623 277.392 226.94 278.553 226.94C279.369 226.94 279.778 227.387 279.778 228.28C279.778 228.943 279.522 229.632 279.012 230.347C278.297 231.316 277.462 231.808 276.505 231.82C276.364 231.82 276.275 231.757 276.237 231.629L276.218 231.552C276.881 231.552 277.513 231.119 278.112 230.251C278.725 229.371 279.031 228.637 279.031 228.05C279.031 227.655 278.878 227.457 278.572 227.457C277.896 227.457 277.264 228.05 276.677 229.237C276.192 230.245 275.95 231.259 275.95 232.28ZM281.815 235.074C281.458 235.074 281.279 234.8 281.279 234.251C281.279 233.958 281.636 231.82 282.351 227.84C282.402 227.572 282.517 227.438 282.695 227.438C282.925 227.438 283.097 227.604 283.212 227.935C283.276 228.114 283.308 228.312 283.308 228.529C283.308 228.733 283.282 228.956 283.231 229.198L282.925 230.768H283.021C284.118 228.216 285.126 226.94 286.045 226.94C286.555 226.94 286.893 227.189 287.059 227.686C287.123 227.878 287.155 228.101 287.155 228.356C287.155 228.599 287.085 228.867 286.944 229.16C286.702 229.658 286.338 229.907 285.853 229.907C285.751 229.907 285.668 229.881 285.605 229.83C285.553 229.779 285.522 229.709 285.509 229.619C285.611 229.619 285.745 229.434 285.911 229.064C286.077 228.682 286.172 228.331 286.198 228.012C286.223 227.693 286.115 227.508 285.872 227.457C285.426 227.457 284.896 228.037 284.284 229.198C283.671 230.36 283.18 231.47 282.81 232.529C282.44 233.588 282.223 234.277 282.16 234.596C282.096 234.915 281.981 235.074 281.815 235.074Z" fill="#5B3E5B"/>
<path d="M223.88 194.127C230.813 193.841 237.748 193.682 244.682 193.65C251.616 193.591 258.55 193.648 265.484 193.728C272.417 193.846 279.35 193.988 286.28 194.248C293.21 194.479 300.138 194.84 307.061 195.329C300.12 195.618 293.184 195.778 286.251 195.809C279.318 195.868 272.387 195.81 265.457 195.728C258.527 195.608 251.598 195.465 244.669 195.206C237.738 194.973 230.809 194.613 223.88 194.127Z" fill="#5B3E5B"/>
<path d="M236.996 182.294C242.438 184.751 248.289 185.255 254.171 185.824C260.49 186.435 266.756 186.743 273.077 185.973C273.823 185.882 274.187 184.959 273.193 185.08C266.439 185.904 259.777 185.413 253.031 184.726C247.879 184.201 242.858 183.631 238.085 181.476C237.611 181.262 236.34 181.998 236.996 182.294Z" fill="#A0AFA1"/>
<path d="M237.919 177.946C246.721 180.701 255.689 181.691 264.877 180.993C265.293 180.961 266.406 180.259 265.451 180.331C256.454 181.015 247.661 179.975 239.062 177.284C238.718 177.176 237.451 177.799 237.919 177.946Z" fill="#A0AFA1"/>
<path d="M279.302 162.236C278.836 167.455 276.076 171.856 272.596 175.64C272.054 176.229 273.465 176.023 273.744 175.72C277.339 171.812 280.243 167.333 280.725 161.928C280.768 161.448 279.341 161.801 279.302 162.236Z" fill="#A0AFA1"/>
<path d="M282.24 164.403C280.732 168.924 278.667 173.164 276.051 177.145C275.704 177.673 277.141 177.46 277.395 177.073C280.053 173.028 282.14 168.708 283.671 164.118C283.822 163.666 282.4 163.924 282.24 164.403Z" fill="#A0AFA1"/>
<path d="M273.21 188.98C277.889 188.774 282.517 188.245 287.096 187.245C289.917 186.629 292.526 186.057 294.64 184.017C295.24 183.438 293.809 183.505 293.46 183.842C289.279 187.878 279.14 187.865 273.711 188.104C273.15 188.128 272.235 189.023 273.21 188.98Z" fill="#A0AFA1"/>
<path d="M259.049 161.243C254.332 161.796 250.826 164.654 247.556 167.901C247.233 168.222 248.6 168.014 248.871 167.745C251.582 165.052 254.519 162.401 258.485 161.936C258.914 161.887 260.002 161.131 259.049 161.243Z" fill="#A0AFA1"/>
<path d="M236.203 189.505C237.635 182.052 239.409 174.369 243.908 168.091C250.829 158.432 264.532 155.806 275.452 159.886C289.918 165.29 294.189 181.69 296.009 195.396C296.044 195.662 297.482 195.314 297.428 194.911C294.914 175.977 286.929 157.555 265.231 157.558C258.417 157.559 251.883 159.071 246.695 163.702C239.208 170.386 236.616 180.362 234.792 189.851C234.732 190.168 236.131 189.882 236.203 189.505Z" fill="#5B3E5B"/>
<path d="M263.301 157.535C261.749 156.367 261.981 152.563 263.519 151.369C264.735 150.425 265.418 151.351 265.68 152.226C265.884 152.905 265.84 153.834 265.85 154.523C265.868 155.816 265.743 157.06 265.194 158.247C264.923 158.833 266.345 158.561 266.532 158.157C267.623 155.799 268.329 149.002 263.915 150.347C261.144 151.192 259.448 156.261 261.991 158.175C262.375 158.464 263.68 157.82 263.301 157.535Z" fill="#5B3E5B"/>
<path d="M85.4785 349.683V348.852L88.5992 345.436C88.9655 345.036 89.2671 344.688 89.504 344.393C89.741 344.094 89.9165 343.814 90.0303 343.552C90.1473 343.288 90.2058 343.011 90.2058 342.721C90.2058 342.389 90.1257 342.101 89.9657 341.858C89.8087 341.615 89.5933 341.427 89.3194 341.295C89.0455 341.163 88.7377 341.096 88.3961 341.096C88.0329 341.096 87.7159 341.172 87.4451 341.323C87.1773 341.47 86.9696 341.678 86.8219 341.946C86.6772 342.214 86.6049 342.527 86.6049 342.888H85.5154C85.5154 342.334 85.6431 341.847 85.8986 341.429C86.154 341.01 86.5018 340.684 86.9419 340.45C87.3851 340.216 87.8821 340.099 88.433 340.099C88.987 340.099 89.4779 340.216 89.9057 340.45C90.3335 340.684 90.6689 340.999 90.9121 341.396C91.1552 341.793 91.2768 342.235 91.2768 342.721C91.2768 343.069 91.2137 343.409 91.0875 343.742C90.9644 344.071 90.749 344.439 90.4412 344.845C90.1365 345.248 89.7133 345.741 89.1717 346.322L87.0481 348.593V348.667H91.443V349.683H85.4785ZM96.6734 340.228V349.683H95.5286V341.429H95.4732L93.1649 342.961V341.798L95.5286 340.228H96.6734ZM100.205 348.473C99.9773 348.473 99.7819 348.392 99.6187 348.229C99.4556 348.066 99.3741 347.87 99.3741 347.643C99.3741 347.415 99.4556 347.219 99.6187 347.056C99.7819 346.893 99.9773 346.812 100.205 346.812C100.433 346.812 100.628 346.893 100.791 347.056C100.954 347.219 101.036 347.415 101.036 347.643C101.036 347.793 100.998 347.932 100.921 348.058C100.847 348.184 100.747 348.286 100.621 348.363C100.497 348.437 100.359 348.473 100.205 348.473ZM100.205 343.691C99.9773 343.691 99.7819 343.609 99.6187 343.446C99.4556 343.283 99.3741 343.088 99.3741 342.86C99.3741 342.632 99.4556 342.437 99.6187 342.274C99.7819 342.11 99.9773 342.029 100.205 342.029C100.433 342.029 100.628 342.11 100.791 342.274C100.954 342.437 101.036 342.632 101.036 342.86C101.036 343.011 100.998 343.149 100.921 343.275C100.847 343.401 100.747 343.503 100.621 343.58C100.497 343.654 100.359 343.691 100.205 343.691ZM106.056 349.812C105.361 349.812 104.768 349.623 104.279 349.244C103.79 348.863 103.416 348.31 103.157 347.587C102.899 346.861 102.769 345.984 102.769 344.956C102.769 343.934 102.899 343.061 103.157 342.338C103.419 341.612 103.794 341.058 104.284 340.676C104.776 340.292 105.367 340.099 106.056 340.099C106.746 340.099 107.335 340.292 107.825 340.676C108.317 341.058 108.692 341.612 108.951 342.338C109.213 343.061 109.343 343.934 109.343 344.956C109.343 345.984 109.214 346.861 108.956 347.587C108.697 348.31 108.323 348.863 107.834 349.244C107.344 349.623 106.752 349.812 106.056 349.812ZM106.056 348.797C106.746 348.797 107.281 348.464 107.663 347.799C108.045 347.135 108.235 346.187 108.235 344.956C108.235 344.137 108.148 343.44 107.972 342.864C107.8 342.289 107.551 341.85 107.224 341.549C106.901 341.247 106.512 341.096 106.056 341.096C105.373 341.096 104.839 341.433 104.455 342.107C104.07 342.778 103.877 343.728 103.877 344.956C103.877 345.774 103.964 346.47 104.136 347.042C104.308 347.615 104.556 348.05 104.879 348.349C105.205 348.647 105.598 348.797 106.056 348.797ZM114.181 349.812C113.486 349.812 112.893 349.623 112.404 349.244C111.915 348.863 111.541 348.31 111.282 347.587C111.024 346.861 110.894 345.984 110.894 344.956C110.894 343.934 111.024 343.061 111.282 342.338C111.544 341.612 111.919 341.058 112.409 340.676C112.901 340.292 113.492 340.099 114.181 340.099C114.871 340.099 115.46 340.292 115.95 340.676C116.442 341.058 116.817 341.612 117.076 342.338C117.338 343.061 117.468 343.934 117.468 344.956C117.468 345.984 117.339 346.861 117.081 347.587C116.822 348.31 116.448 348.863 115.959 349.244C115.469 349.623 114.877 349.812 114.181 349.812ZM114.181 348.797C114.871 348.797 115.406 348.464 115.788 347.799C116.17 347.135 116.36 346.187 116.36 344.956C116.36 344.137 116.273 343.44 116.097 342.864C115.925 342.289 115.676 341.85 115.349 341.549C115.026 341.247 114.637 341.096 114.181 341.096C113.498 341.096 112.964 341.433 112.58 342.107C112.195 342.778 112.002 343.728 112.002 344.956C112.002 345.774 112.089 346.47 112.261 347.042C112.433 347.615 112.681 348.05 113.004 348.349C113.33 348.647 113.723 348.797 114.181 348.797Z" fill="#A0AFA1"/>
<path d="M87.654 352.456C86.6843 352.456 85.8103 352.685 85.032 353.145C83.5902 354.012 82.7417 355.378 82.4865 357.24C82.4483 357.534 82.4291 357.891 82.4291 358.312C82.4291 358.733 82.5057 359.205 82.6588 359.729C82.8757 360.507 83.3031 361.209 83.9411 361.834C84.5663 362.459 85.351 362.886 86.2951 363.116C86.6907 361.662 87.2904 360.303 88.0942 359.04C88.898 357.764 89.9124 356.705 91.1372 355.862C92.3621 355.008 93.6508 354.58 95.0033 354.58C96.1771 354.58 96.8916 355.052 97.1468 355.996C97.2234 356.239 97.2616 356.494 97.2616 356.762C97.2616 357.54 96.9682 358.402 96.3812 359.346C95.4626 360.864 94.1229 362.019 92.3621 362.81C90.9841 363.435 89.4977 363.748 87.9028 363.748H87.52C87.2521 364.692 87.1181 365.604 87.1181 366.484C87.1181 368.143 87.5392 369.291 88.3813 369.929C88.4961 368.883 88.764 367.901 89.1851 366.982C89.6061 366.063 90.1867 365.291 90.9267 364.666C91.6795 364.041 92.5088 363.728 93.4147 363.728C94.461 363.728 95.1117 364.194 95.3669 365.126C95.4307 365.381 95.4626 365.642 95.4626 365.91C95.4626 366.612 95.2393 367.365 94.7927 368.169C94.091 369.406 93.1149 370.248 91.8645 370.695C90.9586 371.001 90.0591 371.052 89.166 370.848C89.1532 371.014 89.1468 371.18 89.1468 371.346C89.1468 372.277 89.3446 373.062 89.7401 373.7C90.1867 374.453 90.914 374.829 91.9219 374.829C91.8837 375.071 91.6731 375.193 91.2903 375.193C90.2696 375.193 89.5168 374.772 89.032 373.929C88.5599 373.087 88.3238 372.092 88.3238 370.944C88.3238 370.816 88.3238 370.695 88.3238 370.58C87.2266 370.108 86.4993 369.202 86.142 367.862C85.9634 367.225 85.8741 366.548 85.8741 365.834C85.8741 365.119 85.9762 364.36 86.1803 363.556C85.2872 363.352 84.5152 362.982 83.8645 362.446C83.2138 361.91 82.7481 361.298 82.4674 360.609C82.0974 359.703 81.9124 358.867 81.9124 358.102C81.9124 357.336 82.0336 356.615 82.276 355.939C82.5184 355.263 82.8693 354.625 83.3286 354.025C83.7752 353.413 84.3813 352.921 85.1468 352.551C85.9124 352.169 86.7545 351.977 87.6731 351.977C89.4849 351.977 90.7226 352.679 91.386 354.083C91.4626 354.236 91.3733 354.338 91.1181 354.389C90.8119 354.414 90.6205 354.344 90.5439 354.178C90.1612 353.03 89.1978 352.456 87.654 352.456ZM94.7545 355.078C94.0272 355.078 93.2872 355.32 92.5344 355.805C91.7943 356.277 91.1181 356.902 90.5057 357.681C89.2042 359.339 88.2537 361.209 87.654 363.288H87.9219C90.4227 363.288 92.528 362.491 94.2377 360.896C95.3733 359.837 96.0687 358.695 96.3238 357.47C96.3749 357.202 96.4004 356.96 96.4004 356.743C96.4004 356.079 96.158 355.601 95.6731 355.307C95.4307 355.154 95.1245 355.078 94.7545 355.078ZM93.587 364.245C92.5535 364.245 91.6093 364.877 90.7545 366.14C89.9124 367.403 89.3956 368.807 89.2042 370.35C89.536 370.453 89.8868 370.504 90.2569 370.504C91.6604 370.504 92.8406 369.891 93.7975 368.666C94.5503 367.722 94.9267 366.791 94.9267 365.872C94.9267 364.953 94.595 364.424 93.9315 364.284C93.8294 364.258 93.7146 364.245 93.587 364.245ZM98.2804 369.968C97.2724 369.968 96.7684 369.209 96.7684 367.69C96.7684 366.81 96.9981 365.847 97.4574 364.8C98.0953 363.384 98.9056 362.459 99.888 362.025C100.233 361.885 100.577 361.815 100.922 361.815C101.279 361.815 101.559 361.917 101.764 362.121C101.968 362.325 102.07 362.555 102.07 362.81C102.07 362.925 102.006 362.982 101.878 362.982C101.764 362.969 101.706 362.906 101.706 362.791C101.706 362.676 101.642 362.574 101.515 362.484C101.4 362.382 101.228 362.331 100.998 362.331C100.194 362.331 99.467 363.052 98.8162 364.494C98.2038 365.834 97.8976 367.103 97.8976 368.303C97.8976 369.043 98.0571 369.413 98.3761 369.413C98.7078 369.413 99.1033 369.138 99.5627 368.59C100.035 368.028 100.469 367.378 100.864 366.638C101.719 365.081 102.223 364.079 102.376 363.633C102.529 363.186 102.695 362.963 102.874 362.963C103.193 362.963 103.352 363.231 103.352 363.767C103.352 363.933 103.333 364.124 103.295 364.341C102.874 366.382 102.644 367.563 102.606 367.882C102.58 368.201 102.567 368.43 102.567 368.571C102.567 369.183 102.714 369.489 103.008 369.489C103.339 369.489 103.805 369.049 104.405 368.169C105.004 367.288 105.521 366.408 105.955 365.528L106.606 364.207H107.122C107.046 364.36 106.944 364.571 106.816 364.839C106.701 365.094 106.465 365.559 106.108 366.236C105.751 366.899 105.406 367.486 105.075 367.996C104.756 368.507 104.392 368.973 103.984 369.394C103.588 369.802 103.244 370.006 102.95 370.006C102.006 370.006 101.534 369.317 101.534 367.939C101.534 367.48 101.585 366.944 101.687 366.331H101.553C100.252 368.756 99.1607 369.968 98.2804 369.968ZM110.327 364.973C110.824 364.245 111.073 363.62 111.073 363.097C111.073 362.574 110.901 362.312 110.556 362.312C110.148 362.312 109.702 362.657 109.217 363.346C108.732 364.022 108.298 364.832 107.915 365.776C107.175 367.601 106.722 368.864 106.556 369.566C106.48 369.821 106.371 369.949 106.231 369.949C106.001 369.949 105.829 369.808 105.714 369.528C105.651 369.374 105.619 369.215 105.619 369.049C105.619 368.87 105.67 368.551 105.772 368.092C105.874 367.62 106.046 366.797 106.288 365.623C106.518 364.449 106.716 363.48 106.882 362.714C107.048 361.936 107.239 361.068 107.456 360.111C107.673 359.142 107.877 358.357 108.068 357.757C108.273 357.145 108.502 356.558 108.757 355.996C109.242 354.899 109.797 354.351 110.422 354.351C110.997 354.351 111.284 354.733 111.284 355.499C111.284 355.69 111.265 355.914 111.226 356.169C111.035 357.381 110.531 358.631 109.714 359.92C109.127 360.851 108.572 361.438 108.049 361.681C107.96 362.153 107.839 362.829 107.686 363.709C107.533 364.59 107.424 365.202 107.36 365.547H107.456C108.54 363.084 109.644 361.853 110.767 361.853C111.609 361.853 112.03 362.319 112.03 363.25C112.03 363.862 111.769 364.526 111.245 365.24C110.735 365.955 110.046 366.414 109.178 366.618C109.612 366.784 109.976 367.078 110.269 367.499C110.576 367.907 110.786 368.303 110.901 368.685C111.194 369.693 111.488 370.197 111.781 370.197C111.781 370.287 111.724 370.376 111.609 370.465C111.494 370.555 111.36 370.599 111.207 370.599C110.773 370.599 110.429 370.395 110.174 369.987C109.931 369.579 109.772 369.132 109.695 368.647C109.619 368.162 109.478 367.716 109.274 367.307C109.07 366.899 108.789 366.695 108.432 366.695H108.394C108.279 366.695 108.196 366.606 108.145 366.427C108.936 366.427 109.663 365.942 110.327 364.973ZM110.844 355.537C110.844 355.129 110.729 354.88 110.499 354.791C109.746 354.791 108.968 356.896 108.164 361.106C108.674 360.749 109.204 360.035 109.753 358.963C110.48 357.521 110.844 356.379 110.844 355.537ZM114.343 367.154C114.343 368.698 114.892 369.47 115.989 369.47C116.397 369.47 116.825 369.291 117.271 368.934C117.731 368.564 118.145 368.124 118.515 367.614C119.332 366.44 119.906 365.483 120.238 364.743L120.487 364.207H121.003C120.787 364.717 120.468 365.349 120.047 366.102C119.625 366.842 119.224 367.467 118.841 367.977C118.458 368.488 118.005 368.953 117.482 369.374C116.959 369.783 116.461 369.987 115.989 369.987C114.101 369.987 113.157 368.928 113.157 366.81C113.157 365.827 113.444 364.845 114.018 363.862C114.809 362.497 115.785 361.815 116.946 361.815C117.763 361.815 118.171 362.261 118.171 363.154C118.171 363.818 117.916 364.507 117.405 365.221C116.691 366.191 115.855 366.682 114.898 366.695C114.758 366.695 114.669 366.631 114.63 366.504L114.611 366.427C115.275 366.427 115.906 365.993 116.506 365.126C117.118 364.245 117.425 363.512 117.425 362.925C117.425 362.529 117.271 362.331 116.965 362.331C116.289 362.331 115.657 362.925 115.07 364.111C114.586 365.119 114.343 366.134 114.343 367.154Z" fill="#5B3E5B"/>
<path d="M58.8809 331.154C66.8539 330.99 74.8179 330.889 82.7779 330.841L106.654 330.635L130.526 330.35L154.42 330.027C146.493 330.892 138.54 331.516 130.578 331.91C122.616 332.332 114.645 332.539 106.674 332.634C98.7019 332.691 90.7299 332.64 82.7629 332.396C74.7939 332.18 66.8319 331.762 58.8809 331.154Z" fill="#5B3E5B"/>
<path d="M67.1969 302.665C67.9009 311.039 68.2689 319.418 68.2979 327.822C68.2999 328.465 69.7529 328.177 69.7519 327.658C69.7229 319.18 69.3569 310.725 68.6469 302.276C68.6019 301.756 67.1469 302.074 67.1969 302.665Z" fill="#5B3E5B"/>
<path d="M68.3929 302.531C70.4989 301.092 72.8439 300.252 75.3829 300.017C76.2019 299.941 76.4919 298.841 75.5049 298.933C72.5679 299.204 69.8609 300.185 67.4259 301.849C66.6179 302.401 67.7949 302.94 68.3929 302.531Z" fill="#5B3E5B"/>
<path d="M68.1819 303.637C81.4439 307.17 95.0789 308.992 108.813 308.811C117.585 308.695 128.692 308.935 134.799 301.504C135.354 300.829 133.964 300.794 133.622 301.21C126.717 309.612 111.466 308.201 101.745 307.823C90.6798 307.392 79.7489 305.643 69.0539 302.794C68.5449 302.658 67.3459 303.414 68.1819 303.637Z" fill="#5B3E5B"/>
<path d="M133.497 301.433C133.709 306.101 133.921 310.77 134.134 315.438C134.151 315.818 135.606 315.549 135.583 315.05C135.371 310.382 135.159 305.713 134.946 301.045C134.929 300.665 133.474 300.934 133.497 301.433Z" fill="#5B3E5B"/>
<path d="M68.7898 317.454C76.3598 315.833 86.3129 315.705 93.2299 319.911C93.0029 320.314 92.7759 320.717 92.5489 321.119C95.8989 316.581 99.6539 314.915 103.814 316.121C105.875 316.487 107.564 317.472 109.311 318.54C111.383 319.806 112.938 321.034 115.367 321.506C121.1 322.619 127.043 319.642 129.725 314.541C129.854 314.296 128.495 314.395 128.292 314.781C127.73 315.851 127.082 316.907 126.229 317.777C124.185 319.861 118.065 321.401 115.339 320.622C112.558 319.828 110.464 317.542 107.847 316.394C105.439 315.337 102.777 314.935 100.16 315.17C98.0849 315.357 87.1509 318.905 91.7529 322.439C94.0739 324.221 97.4989 321.038 93.5509 318.845C86.5309 314.945 76.6169 315.242 69.0439 316.863C68.4549 316.989 67.7798 317.67 68.7898 317.454Z" fill="#A0AFA1"/>
<path d="M133.471 326.934C133.471 328.351 133.471 329.767 133.471 331.184C133.471 331.408 134.92 331.207 134.92 330.796C134.92 329.379 134.92 327.963 134.92 326.546C134.92 326.322 133.471 326.523 133.471 326.934Z" fill="#5B3E5B"/>
<path d="M80.8039 298.509C95.8139 304.162 112.094 303.818 126.872 297.61C127.802 297.219 126.955 296.73 126.297 297.006C112.065 302.985 96.3909 303.24 81.9559 297.804C81.5159 297.638 80.2019 298.282 80.8039 298.509Z" fill="#5B3E5B"/>
<path d="M126.583 297.342C126.842 297.293 127.052 297.361 127.275 297.497C127.55 297.664 127.94 297.579 128.222 297.466C128.313 297.43 128.89 297.123 128.63 296.964C128.067 296.621 127.461 296.541 126.815 296.664C126.593 296.706 126.023 296.822 125.979 297.111C125.935 297.399 126.416 297.374 126.583 297.342Z" fill="#5B3E5B"/>
<path d="M80.4719 281.905C79.8169 283.348 79.5759 284.858 79.7319 286.433C79.7939 287.055 81.2469 286.712 81.1809 286.045C81.0439 284.659 81.2749 283.309 81.8489 282.042C82.1799 281.313 80.7229 281.353 80.4719 281.905Z" fill="#5B3E5B"/>
<path d="M81.3909 282.055C90.8489 282.057 100.306 282.06 109.764 282.062C112.729 282.063 121.07 280.671 123.162 282.679C125.231 284.665 124.28 292.591 124.42 295.537C124.458 296.334 125.927 296.146 125.893 295.447C125.672 290.782 125.452 286.118 125.231 281.453C125.213 281.071 124.9 280.93 124.549 280.93C110.199 280.926 95.8499 280.923 81.4999 280.919C80.6459 280.919 80.4109 282.054 81.3909 282.055Z" fill="#5B3E5B"/>
<path d="M86.4139 290.145C87.0469 291.388 87.9839 291.815 89.3999 291.648C90.4719 291.522 90.8269 291.005 91.7669 290.564C94.7149 289.183 90.1859 289.999 95.6369 289.161C97.3959 287.988 98.4819 288.142 98.8949 289.625C99.5659 290.464 99.5989 291.395 98.9919 292.42C99.4259 292.275 99.8599 292.13 100.295 291.985C102.111 291.023 103.778 290.965 105.297 291.812C105.952 292.138 106.629 292.411 107.327 292.631C107.842 292.771 108.368 292.879 108.901 292.926C110.034 293.026 111.163 292.878 112.25 292.564C115.753 291.552 118.202 288.93 119.729 285.719C119.263 285.844 118.798 285.969 118.332 286.093C120.239 287.542 121.767 288.062 124.16 288.156C124.681 288.176 125.709 287.419 124.736 287.381C123.051 286.768 121.366 286.154 119.682 285.541C119.304 285.253 118.481 285.502 118.285 285.915C116.451 289.77 115.347 290.218 111.101 290.852C106.787 291.496 107.551 291.129 104.445 290.263C103.35 289.958 102.217 289.695 101.071 289.934C99.6219 290.237 98.5859 290.797 98.5729 292.279C98.5989 292.348 98.6469 292.396 98.7169 292.422C98.8559 292.501 98.9949 292.58 99.1339 292.658C99.4879 292.859 100.284 292.609 100.437 292.223C101.422 289.728 99.9779 287.484 97.3469 287.089C96.3319 286.937 95.1119 287.241 94.1929 287.62C92.8019 288.193 89.0069 291.998 87.8639 289.756C87.6249 289.289 86.2199 289.764 86.4139 290.145Z" fill="#A0AFA1"/>
<path d="M84.8809 267.436C84.9889 272.269 85.0969 277.101 85.2059 281.934C85.2149 282.317 86.6659 282.057 86.6549 281.546C86.5469 276.713 86.4389 271.88 86.3299 267.048C86.3209 266.665 84.8689 266.925 84.8809 267.436Z" fill="#5B3E5B"/>
<path d="M116.1 268.791C116.348 272.875 116.535 276.961 116.659 281.051C116.682 281.791 118.143 281.555 118.124 280.931C118 276.841 117.814 272.755 117.565 268.671C117.52 267.931 116.062 268.173 116.1 268.791Z" fill="#5B3E5B"/>
<path d="M84.9619 267.425C94.8479 269.158 104.733 269.229 114.637 267.6C115.362 267.481 115.805 266.546 114.811 266.709C105.133 268.3 95.4949 268.267 85.8319 266.573C85.3169 266.482 84.1219 267.277 84.9619 267.425Z" fill="#5B3E5B"/>
<path d="M101.389 266.06C101.818 266.06 102.961 265.421 102.001 265.421C101.572 265.42 100.429 266.06 101.389 266.06Z" fill="#5B3E5B"/>
<path d="M87.0319 266.61C87.9939 265.8 89.0948 265.29 90.3428 265.121C90.5688 265.09 91.1529 264.939 91.1679 264.636C91.1839 264.321 90.7718 264.308 90.5458 264.339C88.8108 264.574 87.2148 265.258 85.8738 266.387C85.6258 266.595 85.7388 266.802 86.0068 266.885C86.3228 266.982 86.7889 266.814 87.0319 266.61Z" fill="#5B3E5B"/>
<path d="M112.992 265.295C114.264 265.418 115.436 265.823 116.51 266.517C116.893 266.764 118.167 266.181 117.865 265.987C116.66 265.209 115.334 264.744 113.905 264.606C113.587 264.575 113.121 264.649 112.881 264.881C112.692 265.062 112.666 265.264 112.992 265.295Z" fill="#5B3E5B"/>
<path d="M131.55 319.995C130.788 318.184 128.916 313.867 130.358 312.144C132.24 309.895 133.228 318.18 133.174 319.36C133.164 319.57 134.578 319.374 134.623 318.972C135.189 313.901 136.321 308.981 140.244 305.428C139.784 305.512 139.325 305.596 138.865 305.68C139.077 310.586 137.238 314.921 135.201 319.273C135.095 319.5 136.44 319.337 136.629 319.014C137.491 317.54 138.399 316.113 139.453 314.767C140.222 313.785 141.044 312.851 141.919 311.964C142.702 310.767 143.011 310.724 142.847 311.834C143.364 314.625 138.769 318.432 136.881 319.993C136.52 320.292 137.809 320.099 137.952 320.024C139.581 319.168 144.934 315.577 144.81 318.984C145.429 320.613 144.682 321.334 142.571 321.148C141.335 321.475 140.083 321.721 138.816 321.884C138.239 321.972 137.52 322.561 138.543 322.405C141.402 321.97 146.969 321.334 149.052 319.017C151.141 316.693 148.061 316.647 146.409 316.818C144.942 316.97 143.459 317.324 142.048 317.756C141.178 318.023 140.258 318.304 139.445 318.704C137.555 319.633 138.96 319.096 140.011 318.28C141.689 316.978 146.131 311.692 144.437 309.729C144.256 309.52 143.503 309.806 143.338 309.885C139.87 311.544 137.07 316.076 135.201 319.273C135.677 319.187 136.153 319.1 136.629 319.014C138.704 314.58 140.53 310.264 140.314 305.292C140.299 304.953 139.056 305.435 138.935 305.544C134.939 309.163 133.753 314.184 133.175 319.36C133.658 319.231 134.14 319.101 134.623 318.972C134.725 316.711 133.985 308.977 129.881 310.827C126.703 312.26 129.175 318.181 130.102 320.383C130.244 320.721 131.657 320.25 131.55 319.995Z" fill="#A0AFA1"/>
<path d="M130.067 320.834C129.689 323.338 129.969 326.091 132.956 326.559C135.829 327.01 138.02 324.975 139.821 323.03C140.432 322.37 139.038 322.192 138.62 322.644C137.296 324.074 135.532 326.079 133.35 325.515C131.102 324.934 131.253 322.547 131.53 320.708C131.635 320.011 130.16 320.216 130.067 320.834Z" fill="#A0AFA1"/>
<path d="M132.57 320.71C134.435 320.283 136.262 320.58 137.954 321.442C138.385 321.662 139.712 321.039 139.104 320.73C136.981 319.649 134.68 319.435 132.37 319.963C131.488 320.165 131.692 320.911 132.57 320.71Z" fill="#A0AFA1"/>
<path d="M130.992 324.178C126.305 324.086 121.973 325.777 118.597 329.03C118.344 329.274 118.822 329.362 118.964 329.36C123.242 329.308 130.523 329.713 133.381 325.728C133.71 325.269 132.288 325.438 132.051 325.768C130.766 327.559 128.261 327.962 126.197 328.224C125.929 328.258 120.708 328.955 120.612 328.647C120.334 327.751 123.892 326.159 124.382 325.95C126.305 325.131 128.322 324.838 130.396 324.879C130.865 324.888 131.958 324.197 130.992 324.178Z" fill="#A0AFA1"/>
<path d="M132.403 326.511C139.132 329.313 146.184 329.796 153.246 328.033C153.462 327.979 154.215 327.574 153.729 327.334C148.123 324.568 142.157 323.797 136.028 325.008C135.357 325.141 134.828 325.989 135.825 325.792C141.659 324.639 147.244 325.396 152.573 328.025C152.734 327.792 152.895 327.559 153.056 327.326C146.436 328.979 139.842 328.436 133.557 325.818C133.136 325.643 131.814 326.265 132.403 326.511Z" fill="#A0AFA1"/>
<path d="M127.037 296.651C129.902 292.497 134.128 289.797 139.087 288.898C138.818 288.728 138.549 288.559 138.28 288.389C135.735 292.723 131.46 295.249 126.641 296.352C125.922 296.517 125.832 297.336 126.685 297.287C129.613 297.118 132.333 297.624 135.021 298.766C135.123 298.464 135.225 298.162 135.328 297.861C132.536 298.539 129.892 298.262 127.289 297.046C126.774 296.805 125.481 297.518 126.16 297.835C129.208 299.26 132.3 299.555 135.569 298.761C136.022 298.651 136.472 298.109 135.876 297.856C132.956 296.616 129.998 296.134 126.838 296.317C126.853 296.629 126.867 296.941 126.882 297.252C132.139 296.049 136.877 293.236 139.653 288.508C139.955 287.994 139.126 287.948 138.846 287.999C133.422 288.982 128.79 292 125.664 296.533C125.24 297.148 126.711 297.123 127.037 296.651Z" fill="#A0AFA1"/>
<path d="M76.7399 297.425C77.4049 299.122 79.5789 299.491 81.1809 299.115C81.9499 298.935 82.7868 298.552 83.1848 297.832C83.5588 297.156 83.4509 296.299 82.8049 295.846C82.4109 295.57 81.1019 296.147 81.4549 296.395C81.8129 296.646 81.9669 296.982 81.9309 297.417C81.8699 298.158 81.2179 298.504 80.5129 298.482C79.5319 298.452 78.5609 297.982 78.1899 297.036C78.0069 296.571 76.5759 297.007 76.7399 297.425Z" fill="#A0AFA1"/>
<path d="M74.0689 297.557C73.3729 297.141 61.5739 289.442 66.0939 287.656C67.0499 287.278 74.9449 295.12 76.0509 296.053C76.4999 295.865 76.9489 295.677 77.3969 295.489C72.7109 291.854 70.0599 286.806 69.7159 280.891C69.2819 281.071 68.8479 281.252 68.4139 281.433C73.5899 284.682 77.0379 289.473 78.5289 295.406C79.0119 295.277 79.4949 295.147 79.9779 295.018C78.4339 289.94 78.0169 284.894 78.7269 279.624C78.2439 279.72 77.7609 279.815 77.2789 279.911C80.0069 284.8 80.3249 290.125 80.4699 295.612C80.4819 296.062 81.8829 295.76 81.9179 295.326C82.1919 291.965 83.4449 289.195 85.9099 286.829C85.4749 286.855 85.0409 286.882 84.6059 286.908C85.3619 290.241 84.8138 293.036 82.8768 295.814C82.5048 296.347 83.9549 296.225 84.2249 295.839C86.2439 292.944 86.8339 289.953 86.0559 286.519C85.9499 286.053 84.9548 286.403 84.7518 286.598C82.1658 289.081 80.7648 291.914 80.4718 295.509C80.9548 295.414 81.4378 295.318 81.9198 295.223C81.7748 289.732 81.4579 284.415 78.7289 279.522C78.4989 279.11 77.3449 279.331 77.2809 279.809C76.5609 285.145 76.9609 290.242 78.5309 295.406C78.6809 295.899 80.1058 295.519 79.9798 295.018C78.4498 288.934 74.8859 284.075 69.5699 280.738C69.2259 280.522 68.2399 280.799 68.2679 281.28C68.6179 287.291 71.2929 292.362 76.0519 296.053C76.4329 296.349 77.7969 295.826 77.3969 295.489C75.5299 293.914 73.6639 292.34 71.7969 290.766C70.2469 289.459 68.3668 287.157 66.5018 286.421C65.4788 286.018 64.4379 285.903 63.5389 286.681C59.5239 290.155 70.5748 296.856 72.9148 298.252C73.3138 298.49 74.6509 297.904 74.0689 297.557Z" fill="#A0AFA1"/>
<path d="M100.621 264.886C97.5599 263.228 91.6968 260.017 90.6058 256.398C89.5178 252.793 94.9228 257.38 95.6068 258.152C97.1358 259.877 98.6478 261.618 100.168 263.351C100.477 263.703 101.805 263.408 101.56 262.854C101.161 261.95 99.2088 258.91 99.4368 257.984C100.089 255.328 102.192 260.159 102.483 261.364C102.616 261.916 103.958 261.614 103.937 261.099C103.89 259.947 103.542 255.237 104.827 254.675C108.623 253.015 106.559 260.381 106.195 261.746C106.026 262.381 107.484 262.145 107.654 261.604C108.394 259.257 109.439 257.128 111.108 255.303C114.61 251.473 114.249 255.283 113.172 257.556C111.496 261.092 110.371 262.009 106.532 263.368C103.364 264.489 102.371 264.581 99.4688 264.623C99.0958 264.628 98.4909 264.968 98.7219 265.399C100.036 267.858 102.766 268.06 104.863 266.477C105.647 265.886 104.45 265.526 103.93 265.918C102.639 265.543 101.348 265.167 100.057 264.792C99.8078 265.051 99.5588 265.31 99.3098 265.568C103.838 265.503 107.357 266.223 110.931 262.907C113.513 260.511 117.179 254.964 116.055 251.377C115.934 250.991 115.289 251.061 115.025 251.201C110.607 253.549 107.703 256.963 106.195 261.746C106.681 261.699 107.168 261.651 107.654 261.604C108.104 259.912 110.016 251.998 105.905 252.399C102.359 252.745 102.387 259.027 102.477 261.241C102.962 261.153 103.446 261.064 103.931 260.976C103.466 259.053 102.074 254.656 99.3738 255.157C95.5658 255.864 99.4629 261.775 100.11 263.242C100.574 263.076 101.038 262.91 101.502 262.745C99.8128 260.82 93.1858 250.337 89.1168 253.66C85.1408 256.906 97.2789 264.467 99.4879 265.663C99.9789 265.928 101.283 265.244 100.621 264.886Z" fill="#A0AFA1"/>
<path d="M110.712 264.092C113.44 261.62 116.841 260.553 120.491 260.962C120.35 260.783 120.21 260.605 120.069 260.426C118.192 264.134 111.641 264.273 108.025 264.309C107.238 264.317 106.878 265.276 107.869 265.266C112.057 265.224 119.235 264.891 121.44 260.537C121.6 260.221 121.3 260.032 121.018 260.001C116.74 259.521 112.705 260.853 109.52 263.74C108.871 264.327 110.287 264.477 110.712 264.092Z" fill="#A0AFA1"/>
<path d="M95.5409 262.164C91.9129 261.506 88.2949 261.297 84.6179 261.54C84.4669 261.55 83.3299 261.83 83.6289 262.106C87.6449 265.82 93.5438 266.191 98.2318 263.54C99.0678 263.067 97.7499 263.101 97.3859 263.307C93.2569 265.643 88.3779 264.732 84.9909 261.6C84.6609 261.789 84.3319 261.977 84.0019 262.166C87.4919 261.935 90.9189 262.126 94.3579 262.75C94.7129 262.815 95.9679 262.242 95.5409 262.164Z" fill="#A0AFA1"/>
<path d="M118.372 279.545C118.536 276.101 120.188 273.169 123.065 271.257C122.634 271.299 122.204 271.341 121.773 271.383C122.351 275.182 119.143 277.702 117.24 280.566C116.902 281.074 118.338 280.784 118.57 280.524C120.797 278.025 123.264 275.763 126.029 273.868C126.333 273.66 128.236 272.158 128.5 272.292C128.599 272.773 128.697 273.255 128.795 273.736C128.264 274.103 127.719 274.445 127.158 274.763C125.789 275.581 124.396 276.363 123.016 277.163C122.322 277.565 123.116 277.711 123.527 277.607C124.585 277.34 126.575 276.267 126.447 277.919C126.345 279.233 125.35 279.213 124.015 279.615C122.31 280.129 120.569 280.425 118.801 280.599C118.152 280.663 117.551 281.363 118.566 281.263C120.81 281.042 123.003 280.612 125.141 279.884C126.149 279.541 128.489 279.022 129.106 277.926C130.604 275.264 124.246 276.804 123.371 277.025C123.541 277.173 123.712 277.321 123.882 277.469C125.967 276.261 129.505 275.008 130.886 272.919C131.568 271.887 131.454 271.036 130.021 271.069C128.082 271.114 126.022 272.926 124.531 273.982C121.842 275.886 119.43 278.108 117.24 280.565C117.683 280.551 118.127 280.538 118.57 280.524C120.565 277.521 123.827 274.969 123.222 270.993C123.157 270.568 122.1 271.006 121.93 271.119C118.856 273.161 117.098 276.241 116.923 279.932C116.908 280.252 118.348 280.04 118.372 279.545Z" fill="#A0AFA1"/>
<path d="M85.5139 271.552C88.7189 275.195 92.7739 276.82 97.5819 276.605C97.8739 276.592 98.6549 276.235 98.3299 275.832C96.4719 273.525 93.4009 276.334 95.7679 278.386C97.0029 279.458 99.1319 279.195 100.554 278.783C101.956 278.378 103.18 277.472 104.329 276.617C107.881 273.973 111.223 272.731 115.66 273.048C116.298 273.093 117.169 272.171 116.19 272.101C113.514 271.91 110.806 271.755 108.262 272.76C105.474 273.861 100.161 280.37 96.9939 276.437C97.2429 276.179 97.4929 275.921 97.7419 275.664C93.3259 275.861 89.7028 274.191 86.8488 270.947C86.4638 270.509 85.0789 271.058 85.5139 271.552Z" fill="#A0AFA1"/>
<path d="M154 89.9999C175.445 89.9999 169.488 118.123 180.28 127.121C196.764 140.866 223.756 137.704 222.984 139" stroke="#805780" stroke-dasharray="8 8"/>
<path d="M255.194 262.392C246.773 285.905 211.5 274 216 316.5C220.5 359 180.357 331.033 179.429 329.752" stroke="#744F74" stroke-dasharray="8 8"/>
<defs>
<linearGradient id="paint0_linear_698_18865" x1="176.918" y1="94.3539" x2="-0.749987" y2="123.134" gradientUnits="userSpaceOnUse">
<stop stop-color="#E8E4E4"/>
<stop offset="1" stop-color="#E8E4E4" stop-opacity="0"/>
</linearGradient>
<linearGradient id="paint1_linear_698_18865" x1="322.879" y1="128" x2="242.868" y2="289.222" gradientUnits="userSpaceOnUse">
<stop stop-color="#E8E4E4"/>
<stop offset="1" stop-color="#E8E4E4" stop-opacity="0"/>
</linearGradient>
<linearGradient id="paint2_linear_698_18865" x1="115.175" y1="251" x2="142.462" y2="428.904" gradientUnits="userSpaceOnUse">
<stop stop-color="#E8E4E4"/>
<stop offset="1" stop-color="#E8E4E4" stop-opacity="0"/>
</linearGradient>
</defs>
</svg>
