<svg width="43" height="19" viewBox="0 0 43 19" fill="none" xmlns="http://www.w3.org/2000/svg">
<path d="M13.1256 10.0196C13.2421 10.0196 13.4483 10.0644 13.744 10.154C14.0398 10.2347 14.2415 10.275 14.349 10.275C14.4028 10.275 14.4431 10.2705 14.47 10.2616L13.6365 15.2898C13.5917 15.5497 13.5693 15.8141 13.5693 16.083C13.5693 16.567 13.6723 16.809 13.8785 16.809C14.1294 16.809 14.4476 16.4863 14.833 15.841C15.093 15.4018 15.3529 14.8416 15.6128 14.1604C15.8727 13.4793 16.0565 12.9504 16.164 12.574C16.2806 12.1886 16.4822 11.5119 16.769 10.5439C17.7101 10.5618 18.1807 10.8307 18.1807 11.3506C18.1807 11.4133 18.1762 11.4626 18.1673 11.4984L17.5085 15.4646C17.4726 15.6528 17.4547 15.8455 17.4547 16.0427C17.4547 16.5536 17.5847 16.809 17.8446 16.809C18.1135 16.809 18.4227 16.5356 18.7723 15.9889C18.4765 15.7917 18.3286 15.5004 18.3286 15.115C18.3286 14.8192 18.4182 14.5593 18.5975 14.3352C18.7767 14.1022 19.0098 13.9857 19.2966 13.9857C19.431 13.9857 19.5655 14.0126 19.6999 14.0663C20.2825 12.6054 20.6455 11.2699 20.7889 10.0599C20.8965 10.1316 21.0444 10.1674 21.2326 10.1674C21.3133 10.1674 21.4208 10.1585 21.5553 10.1406C21.6897 10.1226 21.7793 10.1137 21.8241 10.1137C22.0213 10.1137 22.1199 10.1809 22.1199 10.3153C22.1199 10.3333 22.111 10.3781 22.093 10.4498C21.8779 11.2654 21.5777 12.2065 21.1923 13.2731C20.8158 14.3307 20.4618 15.1105 20.1301 15.6124C20.1481 15.6124 20.1705 15.6169 20.1974 15.6259C20.2332 15.6259 20.2601 15.6259 20.278 15.6259C20.6276 15.6259 20.9458 15.5049 21.2326 15.2629C21.5284 15.0209 21.7524 14.6982 21.9048 14.2949H22.577C22.4067 14.8775 22.0975 15.3525 21.6494 15.72C21.2102 16.0875 20.6948 16.2712 20.1033 16.2712C20.0316 16.2712 19.915 16.2623 19.7537 16.2443C18.9291 17.5619 18.0866 18.2251 17.2261 18.2341C16.4553 18.2341 16.0699 17.5888 16.0699 16.2981C16.0699 16.1278 16.0789 15.8813 16.0968 15.5587C15.7562 16.437 15.3529 17.0958 14.8868 17.535C14.4207 17.9742 13.8606 18.2072 13.2063 18.2341H13.139C12.7805 18.2341 12.4803 18.1041 12.2383 17.8442C11.9873 17.5753 11.8618 17.163 11.8618 16.6073C11.8618 16.455 11.8753 16.2757 11.9021 16.0696L12.8029 10.2884C12.8298 10.1092 12.9374 10.0196 13.1256 10.0196Z" fill="#805780"/>
<path d="M25.2121 10.0464C25.723 10.0464 26.1398 10.1988 26.4625 10.5036C26.7851 10.8083 26.9465 11.1847 26.9465 11.6329C26.9465 12.1976 26.6686 12.7443 26.1129 13.2731C25.5662 13.8019 24.7326 14.1963 23.6123 14.4562C23.5854 14.6713 23.5719 14.8685 23.5719 15.0478C23.5719 15.2808 23.5898 15.469 23.6257 15.6124C23.7333 16.0964 23.908 16.4684 24.15 16.7283C24.401 16.9793 24.6878 17.1048 25.0105 17.1048C25.36 17.1048 25.7006 16.9614 26.0323 16.6746C26.3728 16.3788 26.6597 15.962 26.8927 15.4242C26.9823 15.1912 27.1302 14.8147 27.3364 14.2949H27.9951C27.78 14.9044 27.5963 15.4108 27.4439 15.8141C26.8255 17.4454 25.8844 18.261 24.6206 18.261C24.3427 18.261 24.0559 18.2207 23.7601 18.14C23.1148 17.9607 22.6129 17.5843 22.2544 17.0107C21.8958 16.4281 21.7166 15.6707 21.7166 14.7386C21.7166 14.6131 21.7256 14.4069 21.7435 14.1201C21.7973 13.4748 21.9676 12.8474 22.2544 12.2379C22.5501 11.6194 22.9624 11.0996 23.4913 10.6783C24.0201 10.2571 24.5937 10.0464 25.2121 10.0464ZM26.0995 11.5791C26.0995 11.3819 26.0502 11.2206 25.9516 11.0951C25.862 10.9696 25.741 10.9069 25.5886 10.9069C25.4093 10.9069 25.2211 11.01 25.0239 11.2161C24.4234 11.8525 23.9932 12.7129 23.7333 13.7974C24.5489 13.5106 25.1449 13.1656 25.5214 12.7622C25.9068 12.3499 26.0995 11.9556 26.0995 11.5791Z" fill="#805780"/>
<path d="M33.1309 6.51056C33.2474 6.51056 33.4536 6.55089 33.7494 6.63156C34.0451 6.71223 34.2468 6.75256 34.3544 6.75256C34.4081 6.75256 34.4485 6.74808 34.4754 6.73911L33.0502 15.2898C32.9875 15.6573 32.9561 15.9799 32.9561 16.2578C32.9561 16.6521 33.0234 16.8493 33.1578 16.8493C33.3908 16.8493 33.6911 16.3564 34.0586 15.3704C34.0944 15.2718 34.1392 15.1464 34.193 14.994C34.2558 14.8416 34.3051 14.7117 34.3409 14.6041C34.3857 14.4966 34.4261 14.3935 34.4619 14.2949H35.1207C35.0938 14.3666 34.9907 14.6579 34.8115 15.1688C34.6322 15.6797 34.4843 16.0875 34.3678 16.3922C34.1168 17.0734 33.8569 17.5529 33.588 17.8308C33.3281 18.0997 33.001 18.2341 32.6066 18.2341C32.2301 18.2341 31.912 18.1041 31.652 17.8442C31.3921 17.5843 31.2621 17.172 31.2621 16.6073V16.5132C30.7154 17.6246 30.088 18.1803 29.3799 18.1803H29.2051C28.5598 18.0907 28.0579 17.7411 27.6994 17.1317C27.3408 16.5222 27.1616 15.7334 27.1616 14.7654C27.1616 14.64 27.1705 14.4248 27.1885 14.1201C27.2423 13.4748 27.4125 12.8474 27.6994 12.2379C27.9951 11.6194 28.4074 11.0996 28.9363 10.6783C29.4651 10.2571 30.0387 10.0464 30.6571 10.0464C30.8185 10.0464 30.9888 10.0599 31.168 10.0868C31.5624 10.1674 31.894 10.387 32.1629 10.7456L32.8083 6.766C32.8351 6.59571 32.9427 6.51056 33.1309 6.51056ZM30.4689 11.2161C29.976 11.5926 29.595 12.202 29.3261 13.0446C29.0662 13.8781 28.9363 14.6758 28.9363 15.4377C28.9363 15.6976 28.9452 15.8813 28.9631 15.9889C29.0528 16.6073 29.2634 16.9166 29.595 16.9166C29.7922 16.9166 29.9984 16.8135 30.2135 16.6073C30.4286 16.4012 30.6168 16.1413 30.7781 15.8276C31.2711 14.8685 31.6027 13.9722 31.773 13.1387C31.8358 12.7533 31.903 12.3499 31.9747 11.9287H31.9613C31.8089 11.2923 31.5176 10.9741 31.0874 10.9741C30.8902 10.9741 30.684 11.0548 30.4689 11.2161Z" fill="#805780"/>
<path d="M2.11192 3.13611C2.22844 3.13611 2.43459 3.18092 2.73037 3.27055C3.02614 3.35122 3.22781 3.39155 3.33537 3.39155C3.38914 3.39155 3.42948 3.38707 3.45637 3.37811L2.62281 8.40632C2.578 8.66625 2.55559 8.93066 2.55559 9.19955C2.55559 9.68355 2.65866 9.92555 2.86481 9.92555C3.11577 9.92555 3.43396 9.60288 3.81937 8.95755C4.07929 8.51836 4.33922 7.95818 4.59914 7.27699C4.85907 6.59581 5.04281 6.06699 5.15036 5.69055C5.26688 5.30514 5.46855 4.62844 5.75536 3.66044C6.69647 3.67837 7.16703 3.94726 7.16703 4.46711C7.16703 4.52985 7.16255 4.57914 7.15359 4.615L6.49481 8.5811C6.45896 8.76932 6.44103 8.96203 6.44103 9.15921C6.44103 9.6701 6.57099 9.92555 6.83092 9.92555C7.09981 9.92555 7.40903 9.65218 7.75859 9.10544C7.46281 8.90825 7.31492 8.61695 7.31492 8.23155C7.31492 7.93577 7.40455 7.67584 7.58381 7.45177C7.76307 7.21873 7.9961 7.10222 8.28292 7.10222C8.41736 7.10222 8.55181 7.1291 8.68625 7.18288C9.26884 5.72192 9.63184 4.38644 9.77525 3.17644C9.88281 3.24815 10.0307 3.284 10.2189 3.284C10.2996 3.284 10.4071 3.27503 10.5416 3.25711C10.676 3.23918 10.7657 3.23022 10.8105 3.23022C11.0077 3.23022 11.1062 3.29744 11.1062 3.43189C11.1062 3.44981 11.0973 3.49463 11.0794 3.56633C10.8643 4.38196 10.564 5.32307 10.1786 6.38966C9.80214 7.44729 9.4481 8.22707 9.11647 8.72899C9.1344 8.72899 9.15681 8.73347 9.1837 8.74244C9.21955 8.74244 9.24644 8.74244 9.26436 8.74244C9.61392 8.74244 9.9321 8.62144 10.2189 8.37944C10.5147 8.13744 10.7388 7.81477 10.8911 7.41144H11.5634C11.3931 7.99403 11.0838 8.46907 10.6357 8.83655C10.1965 9.20403 9.68114 9.38777 9.08958 9.38777C9.01788 9.38777 8.90136 9.37881 8.74003 9.36088C7.91544 10.6784 7.07292 11.3417 6.21247 11.3507C5.44166 11.3507 5.05625 10.7053 5.05625 9.41466C5.05625 9.24436 5.06522 8.99788 5.08314 8.67521C4.74255 9.55358 4.33922 10.2124 3.87314 10.6515C3.40707 11.0907 2.84688 11.3238 2.19259 11.3507H2.12537C1.76685 11.3507 1.46659 11.2207 1.22459 10.9608C0.973626 10.6919 0.848145 10.2796 0.848145 9.72388C0.848145 9.57151 0.861589 9.39225 0.888478 9.1861L1.78926 3.405C1.81614 3.22574 1.9237 3.13611 2.11192 3.13611Z" fill="#805780"/>
<path d="M14.1985 3.163C14.7094 3.163 15.1261 3.31537 15.4488 3.62011C15.7715 3.92485 15.9328 4.30129 15.9328 4.74944C15.9328 5.31411 15.655 5.86085 15.0992 6.38966C14.5525 6.91847 13.719 7.31284 12.5986 7.57277C12.5717 7.78788 12.5582 7.98507 12.5582 8.16433C12.5582 8.39736 12.5762 8.58558 12.612 8.72899C12.7196 9.21299 12.8944 9.58495 13.1364 9.84488C13.3873 10.0958 13.6741 10.2213 13.9968 10.2213C14.3464 10.2213 14.687 10.0779 15.0186 9.7911C15.3592 9.49532 15.646 9.07855 15.879 8.54077C15.9687 8.30773 16.1165 7.93129 16.3227 7.41144H16.9815C16.7664 8.02092 16.5826 8.52732 16.4302 8.93066C15.8118 10.5619 14.8707 11.3775 13.6069 11.3775C13.3291 11.3775 13.0422 11.3372 12.7465 11.2565C12.1011 11.0773 11.5992 10.7008 11.2407 10.1272C10.8822 9.54462 10.7029 8.78725 10.7029 7.8551C10.7029 7.72962 10.7119 7.52347 10.7298 7.23666C10.7836 6.59133 10.9539 5.96392 11.2407 5.35444C11.5365 4.736 11.9488 4.21614 12.4776 3.79489C13.0064 3.37363 13.58 3.163 14.1985 3.163ZM15.0858 4.69566C15.0858 4.49848 15.0365 4.33714 14.9379 4.21166C14.8483 4.08618 14.7273 4.02344 14.5749 4.02344C14.3957 4.02344 14.2074 4.12651 14.0102 4.33266C13.4097 4.96903 12.9795 5.82948 12.7196 6.91399C13.5352 6.62718 14.1312 6.2821 14.5077 5.87877C14.8931 5.46648 15.0858 5.07211 15.0858 4.69566Z" fill="#805780"/>
<path d="M37.8457 2.84971C37.6502 2.79503 37.3689 2.75955 37.1783 2.76621C36.587 2.78468 35.9866 3.09937 35.519 3.63732C35.3537 3.82769 35.1351 4.15509 35.0469 4.34526L34.9823 4.48472L34.8827 4.46682C33.7943 4.27277 32.625 4.37497 31.8207 4.73631C30.5178 5.32597 29.99 6.37006 30.4287 7.5003C30.6136 7.97629 30.9178 8.36123 31.4194 8.76328C32.3008 9.46467 33.5469 9.87813 34.8238 9.89259L35.1324 9.89704L35.2977 10.1662C35.7882 10.9688 36.364 11.4822 37.0174 11.6953C37.9339 11.9945 38.8172 11.7007 39.5044 10.8665C39.7237 10.5985 39.8813 10.325 40.0636 9.89863C40.2439 9.47648 40.3179 9.22837 40.3965 8.78213C40.6795 7.21379 40.3932 5.5945 39.6094 4.31708C39.1638 3.58929 38.4897 3.02768 37.8457 2.84971ZM38.4479 3.41136C39.4926 4.13711 40.2085 5.72707 40.2543 7.42223C40.2975 8.99555 39.7927 10.3943 38.9276 11.0972C38.312 11.5999 37.673 11.699 36.9598 11.4042C36.5094 11.2185 36.2342 11.0036 35.8742 10.5619C35.1411 9.66232 34.7416 8.48091 34.7098 7.12089C34.6984 6.6971 34.7303 6.15219 34.7643 6.13972C34.8107 6.12273 35.3272 6.28778 35.6395 6.41717L36.0067 6.57204L36.0183 7.00104C36.0385 7.72156 36.1566 8.36938 36.3844 8.99105C36.8912 10.384 37.7801 11.0914 38.6368 10.7775C38.8781 10.6891 39.0809 10.5341 39.3023 10.267C39.4301 10.1132 39.4728 10.0432 39.608 9.75158C39.7846 9.37644 39.8597 9.13142 39.9382 8.68517C40.282 6.73677 39.5892 4.48232 38.4442 3.81788C38.0976 3.61863 37.7611 3.58583 37.4034 3.72038C37.0025 3.87079 36.7444 4.1285 36.4804 4.64794L36.3227 4.95479L36.1198 4.86073C35.9318 4.77353 35.4663 4.60905 35.2816 4.56448L35.205 4.54694L35.3021 4.3763C35.4913 4.04038 35.8111 3.64955 36.0545 3.45689C36.3142 3.25124 36.6886 3.08598 37.0061 3.03806C37.4729 2.96699 38.0064 3.10653 38.4479 3.41136ZM38.5508 4.18051C38.7014 4.30424 38.9663 4.6299 39.1012 4.85935C39.7543 5.98118 39.9624 7.63092 39.6259 9.01534C39.5524 9.31242 39.2653 9.93154 39.1164 10.1141C38.9534 10.3107 38.7017 10.5046 38.5448 10.5551C38.3311 10.6229 38.1016 10.614 37.8875 10.5276L37.7072 10.4568L37.9195 10.3755C38.3792 10.2036 38.7838 9.7519 39.0214 9.15091C39.2162 8.65331 39.3118 8.08151 39.2991 7.47227C39.2726 6.28925 38.8642 5.23211 38.19 4.59859C38.0507 4.46723 38.0125 4.44439 37.7209 4.30917C37.4451 4.17871 37.3872 4.15957 37.2714 4.15465C37.1159 4.14673 37.1188 4.14039 37.3204 4.01565C37.5354 3.88426 37.7884 3.84241 38.034 3.89979C38.1567 3.92847 38.4025 4.06295 38.5508 4.18051ZM38.0567 4.81406C38.5951 5.3307 38.9526 6.18196 39.0396 7.15166C39.1048 7.88024 39.0198 8.49549 38.7724 9.08426C38.5748 9.55486 38.3512 9.85427 38.0576 10.039C37.8478 10.1703 37.5127 10.2562 37.4049 10.2063C37.3289 10.171 36.8738 9.54664 36.8913 9.5034C36.8943 9.49706 36.967 9.45635 37.0522 9.41112C37.6384 9.1104 38.1179 8.58564 38.2728 8.07983C38.4021 7.65711 38.3874 7.26259 38.2264 6.82341C38.028 6.27695 37.659 5.81576 37.0871 5.39911C36.9604 5.30698 36.7903 5.19215 36.7108 5.1476L36.5655 5.06227L36.586 4.97934C36.6093 4.88486 36.8723 4.43944 36.9155 4.41836C36.9679 4.39389 37.1991 4.38812 37.331 4.4082C37.5477 4.44454 37.8401 4.60578 38.0567 4.81406ZM36.5826 5.35771C37.8095 6.0781 38.3753 7.17229 37.9993 8.09936C37.8701 8.41683 37.6784 8.66425 37.3638 8.91633C37.2131 9.03644 36.8436 9.26304 36.7865 9.26993C36.773 9.27137 36.7457 9.23049 36.7286 9.1789L36.6946 9.08611L36.8051 9.01928C37.0346 8.88435 37.266 8.63993 37.3601 8.43708C37.6245 7.86135 37.3468 7.20885 36.6019 6.65037C36.3301 6.44475 35.7623 6.16346 35.3667 6.03652C34.1969 5.66354 33.0032 5.64662 32.0776 5.99278C31.4892 6.21542 31.1067 6.60288 31.0284 7.05954C30.9734 7.38316 31.0918 7.75899 31.3502 8.0765C31.6174 8.40835 31.9179 8.635 32.4362 8.89587C33.1058 9.23461 33.9288 9.43649 34.7215 9.46002L34.9373 9.46512L34.9727 9.53285C34.9925 9.5677 35.0062 9.61002 35.0055 9.62255C35.0039 9.63718 34.8801 9.64396 34.7309 9.63898C33.379 9.59233 32.1671 9.13307 31.3175 8.34632C30.9789 8.03013 30.7947 7.75732 30.6453 7.35427C30.4743 6.89246 30.4751 6.56418 30.6473 6.14853C30.9042 5.53342 31.3884 5.13149 32.2209 4.84227C33.1843 4.50854 34.4729 4.52579 35.5652 4.88854C35.8052 4.969 36.3408 5.21478 36.5826 5.35771ZM36.5647 6.94117C36.7921 7.12621 36.9098 7.2655 36.9122 7.3488C36.9153 7.45291 36.7996 7.7356 36.7042 7.85825C36.5987 7.99162 36.4119 8.15657 36.3955 8.131C36.3606 8.07888 36.2793 7.40705 36.2665 7.08021L36.2537 6.71482L36.3398 6.77272C36.3845 6.80371 36.4878 6.87986 36.5647 6.94117ZM34.487 6.35006C34.4264 6.94583 34.4851 7.91011 34.6146 8.41692C34.6313 8.48625 34.6362 8.54758 34.6219 8.55634C34.5851 8.58035 34.0232 8.50208 33.7534 8.43605C33.6085 8.39968 33.3664 8.31824 33.1881 8.24325C32.323 7.88318 31.791 7.29758 31.7655 6.68246C31.759 6.49716 31.7608 6.48773 31.8254 6.41496C31.8717 6.35941 31.9671 6.30866 32.134 6.24226C32.5605 6.07546 33.1246 5.98276 33.646 5.99345C33.8973 5.99959 34.4199 6.05192 34.4779 6.07626C34.5033 6.08802 34.5066 6.16399 34.487 6.35006ZM37.2057 7.97269C37.2064 8.24257 37.1224 8.4347 36.9147 8.63361C36.8153 8.72616 36.6193 8.86636 36.5982 8.85657C36.5918 8.85363 36.5566 8.75254 36.5207 8.63064L36.4558 8.41058L36.635 8.26775C36.8294 8.10883 36.9782 7.92625 37.0724 7.7286L37.1333 7.6028L37.1702 7.72259C37.1888 7.7877 37.2057 7.90079 37.2057 7.97269ZM31.5362 6.8226C31.5771 7.28825 31.9519 7.80867 32.5086 8.16949C32.7413 8.32103 33.2619 8.55474 33.5341 8.63217C33.8188 8.71027 34.2263 8.78371 34.4926 8.80192L34.6984 8.81773L34.7719 9.01356C34.8115 9.12181 34.8424 9.21573 34.8395 9.22207C34.8366 9.22841 34.7386 9.22921 34.6217 9.2212C34.0976 9.18871 33.6366 9.1033 33.1756 8.95119C31.8677 8.52185 31.0644 7.67956 31.2929 6.98192C31.3322 6.86405 31.4808 6.63771 31.5082 6.65044C31.5167 6.65436 31.5294 6.73215 31.5362 6.8226Z" fill="#805780"/>
<path d="M34.8669 1.56862C34.5256 1.55159 34.2628 1.68647 34.1091 1.95152L34.0406 2.06608L33.9164 2.02389C33.5132 1.88572 33.0509 2.11297 32.8901 2.5262C32.7537 2.88141 32.8438 3.21847 33.1494 3.47311C33.2927 3.59602 33.6058 3.75665 33.8764 3.84872C34.1427 3.93882 34.6645 4.07038 34.7383 4.06611C34.8413 4.05995 35.261 3.44839 35.4597 3.01423C35.6841 2.53035 35.6957 2.21738 35.4984 1.92307C35.3751 1.73496 35.0943 1.57651 34.8669 1.56862ZM35.1993 1.95898C35.5203 2.24131 35.4223 2.73501 34.8868 3.51881C34.7939 3.65285 34.7047 3.77324 34.6853 3.78736C34.614 3.84156 33.9725 3.64684 33.6191 3.46239C33.1926 3.24154 33.0509 3.06543 33.0728 2.78551C33.0949 2.47223 33.337 2.23792 33.6554 2.22124C33.7366 2.21781 33.8007 2.23468 33.9369 2.29527C34.0372 2.33921 34.1266 2.36784 34.1482 2.3599C34.1668 2.3531 34.2066 2.28941 34.2427 2.20602C34.3257 2.016 34.4106 1.927 34.5815 1.85735C34.6865 1.81362 34.7622 1.79992 34.8595 1.81165C35.0267 1.82756 35.0774 1.85107 35.1993 1.95898Z" fill="#805780"/>
<path d="M30.7616 4.74463C30.6184 4.83742 30.3504 5.07771 30.2337 5.2187C30.1169 5.3597 30.1144 5.415 30.2158 5.46203C30.2919 5.49731 30.3236 5.47866 30.4599 5.32875C30.5225 5.26021 30.6615 5.13211 30.7705 5.04657C30.8804 4.95892 30.9759 4.87482 30.9828 4.86003C31.0024 4.81777 30.9591 4.72838 30.9063 4.70389C30.8746 4.68919 30.827 4.7031 30.7616 4.74463Z" fill="#805780"/>
<path d="M40.7248 9.43035L40.6576 9.44796L40.586 9.70746C40.5286 9.91445 40.4645 10.0747 40.2695 10.4952C40.0176 11.0331 39.9045 11.2271 39.6926 11.4626C39.5806 11.5878 39.5633 11.6363 39.606 11.7048C39.6901 11.8389 39.8296 11.7264 40.1483 11.2606C40.4521 10.8212 40.9376 9.61374 40.8649 9.48249C40.8319 9.42094 40.8003 9.41145 40.7248 9.43035Z" fill="#805780"/>
<path d="M29.802 5.96463C29.7479 6.00374 29.6788 6.24129 29.6501 6.46931C29.6266 6.66383 29.6462 7.00922 29.6929 7.21314C29.8094 7.737 30.1474 8.31477 30.5756 8.73669C30.6904 8.84898 30.6946 8.85094 30.7545 8.8325C30.8237 8.81066 30.8705 8.73738 30.8461 8.68496C30.8371 8.66542 30.7681 8.58721 30.6939 8.50916C30.3799 8.1787 30.1976 7.89646 30.0509 7.51521C29.8773 7.07015 29.8355 6.57326 29.9463 6.22924C29.9683 6.16502 29.9805 6.08338 29.9785 6.04905C29.9667 5.96916 29.8621 5.91805 29.802 5.96463Z" fill="#805780"/>
<path d="M39.1407 12.0052C39.114 12.0185 39.0228 12.0712 38.9368 12.1237C38.8508 12.1763 38.7112 12.2502 38.6238 12.2893C38.5385 12.3293 38.4577 12.3817 38.4469 12.405C38.4254 12.4514 38.4678 12.5481 38.5186 12.5717C38.5777 12.5991 39.0338 12.3741 39.2263 12.2246C39.3017 12.1672 39.3057 12.1587 39.2965 12.0954C39.2859 12.0186 39.2116 11.9739 39.1407 12.0052Z" fill="#805780"/>
</svg>
