<svg width="39" height="10" viewBox="0 0 39 10" fill="none" xmlns="http://www.w3.org/2000/svg">
<path id="bloom" fill-rule="evenodd" clip-rule="evenodd" d="M1.02016 7.62773C1.4982 7.9066 1.51396 7.95262 1.29678 8.43484C0.875496 9.37065 0.97361 9.67764 1.76694 9.90401C2.67433 10.1628 4.16163 9.87929 5.023 9.2832C5.34921 9.05752 6.09939 8.5649 6.69023 8.1887L7.76448 7.50448C26.6401 7.50922 16.6147 7.49733 39 7.49733L39 7.07118L39 6.64504L24.23 6.64504L18.351 6.64504L17.6022 5.20638C16.4152 2.92567 14.4448 1.1732 12.0672 0.283415C10.9449 -0.136591 10.7088 -0.101134 10.8538 0.465976C11.1123 1.47696 12.2806 3.42784 13.2186 4.41461C13.9382 5.17166 14.5917 6.01084 15.7463 6.64027L9.80371 6.64265L7.79581 6.64504L6.88503 6.09975C6.38389 5.79991 5.71177 5.34173 5.39146 5.08161C4.09681 4.03091 1.22176 3.79517 1.08265 4.72842C1.05113 4.93996 1.15212 5.35502 1.30717 5.65094C1.46222 5.94685 1.56857 6.19981 1.5435 6.21293C0.384921 6.82163 0.252429 7.1796 1.02016 7.62773ZM5.08817 6.72038C4.47549 6.33822 3.21485 6.21634 2.42886 6.46333C1.12132 6.8743 1.21424 7.31238 2.68829 7.68773C3.34215 7.85426 3.67248 7.85171 4.33404 7.67546C5.45968 7.37528 5.68366 7.09181 5.08817 6.72038ZM2.79357 8.35848C2.22618 8.23711 2.08958 8.26404 1.94223 8.52621C1.56964 9.18894 1.71681 9.37252 2.61703 9.3686C3.58762 9.36434 4.73295 8.92115 5.2579 8.34689L5.61598 7.95517L5.16838 8.07876C3.87033 8.43689 3.41216 8.49075 2.79357 8.35848ZM5.2579 5.79548C4.73295 5.22121 3.58762 4.77803 2.61703 4.77376C1.92289 4.7707 1.76766 4.8249 1.77196 5.06831C1.78413 5.72935 2.08027 5.93645 2.79536 5.78355C3.41198 5.65162 3.8714 5.70582 5.16838 6.06361L5.61598 6.18719L5.2579 5.79548ZM15.1366 2.81061C14.2799 2.00793 12.3482 0.849506 11.8666 0.849506C11.5707 0.849506 11.6187 0.998827 12.3137 2.23907C12.6632 2.86277 13.3061 3.72801 13.7428 4.16165C14.5232 4.93723 16.0361 5.96321 16.3991 5.96321C16.5008 5.96321 15.8695 5.27968 14.9959 4.44427C13.7933 3.29386 13.4375 2.85169 13.5299 2.62208C13.6305 2.37271 13.9514 2.60282 15.3456 3.92472C16.2771 4.80785 17.0391 5.46889 17.0391 5.39354C17.0391 5.03899 15.9794 3.60034 15.1366 2.81061Z" fill="#5B3E5B"/>
</svg>
