<svg width="39" height="10" viewBox="0 0 39 10" fill="none" xmlns="http://www.w3.org/2000/svg">
<path id="bloom" fill-rule="evenodd" clip-rule="evenodd" d="M37.9798 7.62773C37.5018 7.9066 37.486 7.95262 37.7032 8.43484C38.1245 9.37065 38.0264 9.67764 37.2331 9.90401C36.3257 10.1628 34.8384 9.87929 33.977 9.2832C33.6508 9.05752 32.9006 8.5649 32.3098 8.1887L31.2355 7.50448C12.3599 7.50922 22.3853 7.49733 1.51494e-05 7.49733L1.51308e-05 7.07118L1.51121e-05 6.64504L14.77 6.64504L20.649 6.64504L21.3978 5.20638C22.5848 2.92567 24.5552 1.1732 26.9328 0.283415C28.0551 -0.136591 28.2912 -0.101134 28.1462 0.465976C27.8877 1.47696 26.7194 3.42784 25.7814 4.41461C25.0618 5.17166 24.4083 6.01084 23.2537 6.64027L29.1963 6.64265L31.2042 6.64504L32.115 6.09975C32.6161 5.79991 33.2882 5.34173 33.6085 5.08161C34.9032 4.03091 37.7782 3.79517 37.9174 4.72842C37.9489 4.93996 37.8479 5.35502 37.6928 5.65094C37.5378 5.94685 37.4314 6.19981 37.4565 6.21293C38.6151 6.82163 38.7476 7.1796 37.9798 7.62773ZM33.9118 6.72038C34.5245 6.33822 35.7851 6.21634 36.5711 6.46333C37.8787 6.8743 37.7858 7.31238 36.3117 7.68773C35.6578 7.85426 35.3275 7.85171 34.666 7.67546C33.5403 7.37528 33.3163 7.09181 33.9118 6.72038ZM36.2064 8.35848C36.7738 8.23711 36.9104 8.26404 37.0578 8.52621C37.4304 9.18894 37.2832 9.37252 36.383 9.3686C35.4124 9.36434 34.2671 8.92115 33.7421 8.34689L33.384 7.95517L33.8316 8.07876C35.1297 8.43689 35.5878 8.49075 36.2064 8.35848ZM33.7421 5.79548C34.2671 5.22121 35.4124 4.77803 36.383 4.77376C37.0771 4.7707 37.2323 4.8249 37.228 5.06831C37.2159 5.72935 36.9197 5.93645 36.2046 5.78355C35.588 5.65162 35.1286 5.70582 33.8316 6.06361L33.384 6.18719L33.7421 5.79548ZM23.8634 2.81061C24.7201 2.00793 26.6518 0.849506 27.1334 0.849506C27.4293 0.849506 27.3813 0.998827 26.6863 2.23907C26.3368 2.86277 25.6939 3.72801 25.2572 4.16165C24.4768 4.93723 22.9639 5.96321 22.6009 5.96321C22.4992 5.96321 23.1305 5.27968 24.0041 4.44427C25.2067 3.29386 25.5625 2.85169 25.4701 2.62208C25.3695 2.37271 25.0486 2.60282 23.6544 3.92472C22.7229 4.80785 21.9609 5.46889 21.9609 5.39354C21.9609 5.03899 23.0206 3.60034 23.8634 2.81061Z" fill="#5B3E5B"/>
</svg>
